<svg width="34" height="38" viewBox="0 0 34 38" fill="none" xmlns="http://www.w3.org/2000/svg">
<path d="M30.4202 17.8856C28.4467 17.8856 26.8411 19.455 26.8411 21.384C26.8411 26.6878 22.4263 31.0027 16.9997 31.0027C11.5735 31.0027 7.15894 26.6878 7.15894 21.384C7.15894 16.0799 11.5735 11.7647 16.9997 11.7647L17.326 11.7647C16.8318 13.0078 17.0905 14.4736 18.1023 15.4832C18.1111 15.4924 18.1201 15.5016 18.1292 15.5106C19.5249 16.8746 21.7955 16.8744 23.191 15.5105L28.0711 10.7404C28.7376 10.0891 29.1197 9.18731 29.1197 8.26641C29.1197 7.33228 28.7473 6.45391 28.0711 5.793L23.191 1.02293C21.7955 -0.341055 19.5249 -0.341202 18.1283 1.02384C17.0951 2.03438 16.8275 3.5141 17.3256 4.76751H16.9997C7.62599 4.76751 0 12.2217 0 21.3841C7.45628e-05 30.5461 7.62607 38 16.9997 38C26.3737 38 34 30.5461 34 21.384C34 19.4551 32.3944 17.8856 30.4202 17.8856Z" fill="white"/>
</svg>
