<svg width="34" height="38" viewBox="0 0 34 38" fill="none" xmlns="http://www.w3.org/2000/svg">
<path d="M3.57979 17.8856C5.55326 17.8856 7.15886 19.455 7.15886 21.384C7.15886 26.6878 11.5737 31.0027 17.0003 31.0027C22.4265 31.0027 26.8411 26.6878 26.8411 21.384C26.8411 16.0799 22.4265 11.7647 17.0003 11.7647L16.674 11.7647C17.1682 13.0078 16.9095 14.4736 15.8977 15.4832C15.8889 15.4924 15.8799 15.5016 15.8708 15.5106C14.4751 16.8746 12.2045 16.8744 10.809 15.5105L5.92886 10.7404C5.26245 10.0891 4.88026 9.18731 4.88026 8.26641C4.88026 7.33228 5.25273 6.45391 5.92886 5.793L10.809 1.02293C12.2045 -0.341055 14.4751 -0.341202 15.8717 1.02384C16.9049 2.03438 17.1725 3.5141 16.6744 4.76751H17.0003C26.374 4.76751 34 12.2217 34 21.3841C33.9999 30.5461 26.3739 38 17.0003 38C7.6263 38 0 30.5461 0 21.384C0 19.4551 1.6056 17.8856 3.57979 17.8856Z" fill="white"/>
</svg>
