<svg width="36" height="35" viewBox="0 0 36 35" fill="none" xmlns="http://www.w3.org/2000/svg">
<path d="M4.68497 20.9745C6.42383 20.0413 8.5807 20.6648 9.49291 22.3645C12.001 27.0377 17.9315 28.7519 22.713 26.1857C27.4941 23.6197 29.3434 17.7302 26.8353 13.0568C24.327 8.38331 18.3966 6.66877 13.6155 9.2348L13.3279 9.38903C14.3513 10.2507 14.8166 11.6646 14.4025 13.0326C14.399 13.0449 14.3954 13.0572 14.3916 13.0695C13.807 14.9313 11.8062 16.0049 9.9316 15.4631L3.37584 13.5679C2.48065 13.3091 1.71745 12.6953 1.28196 11.8839C0.840215 11.0608 0.753028 10.1107 1.03623 9.20862L3.08051 2.69781C3.66506 0.836064 5.66568 -0.237835 7.54171 0.304512C8.93 0.706313 9.86552 1.88357 10.0194 3.22351L10.3066 3.06939C18.5659 -1.36337 28.8103 1.59835 33.1432 9.67155C37.4758 17.7444 34.2813 27.9184 26.022 32.3512C17.7624 36.7841 7.51782 33.8228 3.18511 25.7499C2.27293 24.0502 2.94547 21.9081 4.68497 20.9745Z" fill="#2A2F56" fill-opacity="0.76"/>
</svg>
