<svg width="35" height="34" viewBox="0 0 35 34" fill="none" xmlns="http://www.w3.org/2000/svg">
<path d="M30.4479 21.1547C28.7659 20.1225 26.5766 20.6203 25.5677 22.2645C22.7937 26.785 16.7741 28.1537 12.1489 25.3154C7.52404 22.4774 6.01816 16.4909 8.79219 11.9703C11.5663 7.44948 17.5859 6.0805 22.2108 8.91853L22.4889 9.08911C21.4175 9.8902 20.8713 11.2748 21.2056 12.6645C21.2083 12.677 21.2112 12.6895 21.2143 12.7019C21.6904 14.5945 23.6258 15.7819 25.5286 15.3492L32.1829 13.8361C33.0915 13.6295 33.8889 13.0608 34.3706 12.2759C34.8592 11.4797 35.0011 10.5362 34.7705 9.61929L33.1059 3.00122C32.6299 1.10881 30.6946 -0.0788985 28.7904 0.354135C27.3812 0.675042 26.3792 1.79628 26.1482 3.12508L25.8704 2.95463C17.881 -1.948 7.48256 0.416787 2.69041 8.22613C-2.10143 16.0351 0.499812 26.3768 8.48918 31.2794C16.4788 36.1822 26.8774 33.8178 31.6694 26.0087C32.6782 24.3646 32.1306 22.1872 30.4479 21.1547Z" fill="#2A2F56" fill-opacity="0.76"/>
</svg>
