<svg width="27" height="35" viewBox="0 0 27 35" fill="none" xmlns="http://www.w3.org/2000/svg">
<path d="M1.38301 20.2556H11.5043L6.2078 33.1336C6.08485 33.4278 6.07025 33.756 6.16659 34.0599C6.26294 34.3637 6.46399 34.6236 6.73399 34.7933C7.00399 34.963 7.32545 35.0315 7.6412 34.9866C7.95696 34.9417 8.24654 34.7863 8.45848 34.548L26.6525 14.5171C26.8279 14.323 26.9429 14.0821 26.9836 13.8237C27.0243 13.5654 26.9889 13.3008 26.8816 13.0622C26.7744 12.8238 26.6001 12.6217 26.3799 12.4806C26.1598 12.3394 25.9033 12.2654 25.6417 12.2675L15.3857 12.4157L18.755 1.80072C18.8604 1.50607 18.8599 1.18392 18.7536 0.889591C18.6473 0.59526 18.4417 0.347112 18.1723 0.187755C17.9028 0.028397 17.5863 -0.0322265 17.277 0.0162934C16.9677 0.0648133 16.685 0.219449 16.4773 0.453649L0.385707 17.9656C0.197688 18.1571 0.0711872 18.4004 0.0224213 18.6643C-0.0263445 18.9282 0.00484703 19.2006 0.111997 19.4466C0.219147 19.6927 0.397373 19.9011 0.623826 20.0453C0.850278 20.1894 1.11464 20.2626 1.38301 20.2556Z" fill="#ffffff"/>
</svg>
