<svg width="35" height="35" viewBox="0 0 35 35" fill="none" xmlns="http://www.w3.org/2000/svg">
<path d="M17.5 35C27.1526 35 35 27.1526 35 17.5C35 7.84737 27.1526 0 17.5 0C7.84737 0 0 7.84737 0 17.5C0 27.1526 7.84737 35 17.5 35ZM9.46842 12.1947C8.69474 11.4211 8.69474 10.2421 9.46842 9.46842C10.2421 8.69474 11.4211 8.69474 12.1947 9.46842L17.5 14.7737L22.8053 9.46842C23.5789 8.69474 24.7579 8.69474 25.5316 9.46842C26.3053 10.2421 26.3053 11.4211 25.5316 12.1947L20.2263 17.5L25.5316 22.8053C26.3053 23.5789 26.3053 24.7579 25.5316 25.5316C25.1632 25.9 24.6842 26.0842 24.1684 26.0842C23.6526 26.0842 23.1737 25.9 22.8053 25.5316L17.5 20.2263L12.1947 25.5316C11.8263 25.9 11.3474 26.0842 10.8316 26.0842C10.3158 26.0842 9.83684 25.9 9.46842 25.5316C8.69474 24.7579 8.69474 23.5789 9.46842 22.8053L14.7737 17.5L9.46842 12.1947Z" fill="white"/>
</svg>
