<svg width="40" height="35" viewBox="0 0 40 35" fill="none" xmlns="http://www.w3.org/2000/svg">
<path fill-rule="evenodd" clip-rule="evenodd" d="M17.3037 1.53474L0.419417 30.4096C-0.774453 32.4513 0.722603 35 3.11573 35H36.8843C39.2774 35 40.7744 32.4513 39.5806 30.4096L22.6963 1.53474C21.4998 -0.511583 18.5002 -0.511578 17.3037 1.53474ZM22.1946 28.4247C22.1946 29.6014 21.2546 30.5553 20.0952 30.5553C18.9358 30.5553 17.9958 29.6014 17.9958 28.4247C17.9958 27.2479 18.9358 26.294 20.0952 26.294C21.2546 26.294 22.1946 27.2479 22.1946 28.4247ZM20 9.24893C18.6749 9.24893 17.6266 10.353 17.7161 11.6545L18.5059 23.144C18.5591 23.9177 19.2122 24.5186 20 24.5186C20.7878 24.5186 21.4409 23.9177 21.4941 23.144L22.2839 11.6545C22.3734 10.353 21.3251 9.24893 20 9.24893Z" fill="white"/>
</svg>
