<svg width="33" height="25" viewBox="0 0 33 25" fill="none" xmlns="http://www.w3.org/2000/svg">
<path d="M31.2395 6.60355L31.2394 6.60361L31.246 6.60992C31.9693 7.3074 31.9787 8.4817 31.2395 9.22091C30.5042 9.95623 29.3586 9.9565 28.623 9.22174C25.403 5.96805 21.0861 4.1875 16.5 4.1875C11.9138 4.1875 7.59686 5.96809 4.37686 9.22185C4.00641 9.59181 3.53603 9.77261 3.06911 9.77261C2.6018 9.77261 2.13102 9.59151 1.76043 9.22091C1.02484 8.48533 1.02484 7.33914 1.76043 6.60355C5.68945 2.67453 10.9147 0.5 16.5 0.5C22.0852 0.5 27.3105 2.67453 31.2395 6.60355Z" fill="white" stroke="#333366"/>
<path d="M22.3785 15.4774L22.3786 15.4773L22.3721 15.4709C19.1502 12.249 13.8802 12.2518 10.6278 15.5042C10.2572 15.8748 9.78643 16.0559 9.31912 16.0559C8.85181 16.0559 8.38103 15.8748 8.01044 15.5042C7.27485 14.7686 7.27485 13.6224 8.01044 12.8868C12.7021 8.19513 20.2982 8.19489 24.99 12.8541C25.7251 13.5897 25.7249 14.7355 24.9895 15.4709C24.2503 16.2101 23.076 16.2007 22.3785 15.4774Z" fill="white" stroke="#333366"/>
<path d="M19.6901 21.3431C19.6901 23.0866 18.2767 24.5 16.5332 24.5C14.7897 24.5 13.3763 23.0866 13.3763 21.3431C13.3763 19.5996 14.7897 18.1862 16.5332 18.1862C18.2767 18.1862 19.6901 19.5996 19.6901 21.3431Z" fill="white" stroke="#333366"/>
</svg>
