<svg width="33" height="25" viewBox="0 0 33 25" fill="none" xmlns="http://www.w3.org/2000/svg">
<path d="M31.5931 6.25C27.5704 2.22739 22.2181 0 16.5 0C10.7819 0 5.42949 2.22739 1.40688 6.25C0.476027 7.18085 0.476027 8.64362 1.40688 9.57447C1.8723 10.0399 2.47071 10.2726 3.06911 10.2726C3.66752 10.2726 4.26592 10.0399 4.73135 9.57447C7.85635 6.41622 12.0452 4.6875 16.5 4.6875C20.9548 4.6875 25.1436 6.41622 28.2686 9.57447C29.1994 10.5053 30.6622 10.5053 31.5931 9.57447C32.5239 8.64362 32.5239 7.14761 31.5931 6.25Z" fill="#717171"/>
<path d="M7.65688 12.5332C6.72603 13.464 6.72603 14.9268 7.65688 15.8576C8.1223 16.3231 8.72071 16.5558 9.31911 16.5558C9.91752 16.5558 10.5159 16.3231 10.9813 15.8576C14.0399 12.7991 18.9933 12.7991 22.0186 15.8244C22.9162 16.7552 24.4122 16.7552 25.343 15.8244C26.2739 14.8935 26.2739 13.4308 25.343 12.4999C20.4561 7.64619 12.5438 7.64619 7.65688 12.5332Z" fill="white"/>
<path d="M16.5331 24.9999C18.5528 24.9999 20.1901 23.3626 20.1901 21.343C20.1901 19.3233 18.5528 17.686 16.5331 17.686C14.5135 17.686 12.8762 19.3233 12.8762 21.343C12.8762 23.3626 14.5135 24.9999 16.5331 24.9999Z" fill="white"/>
</svg>
