<svg width="154" height="38" viewBox="0 0 154 38" fill="none" xmlns="http://www.w3.org/2000/svg">
<path d="M14.763 33H11.109L8.274 28.905H8.106H5.145V33H1.743V18.3H8.106C12.033 18.3 14.49 20.337 14.49 23.634C14.49 25.839 13.377 27.456 11.466 28.275L14.763 33ZM11.046 23.634C11.046 22.017 9.996 21.072 7.917 21.072H5.145V26.196H7.917C9.996 26.196 11.046 25.23 11.046 23.634ZM24.3044 33.252C19.6634 33.252 16.2614 30.018 16.2614 25.65C16.2614 21.282 19.6634 18.048 24.3044 18.048C28.9244 18.048 32.3474 21.261 32.3474 25.65C32.3474 30.039 28.9244 33.252 24.3044 33.252ZM24.3044 30.354C26.9294 30.354 28.9034 28.443 28.9034 25.65C28.9034 22.857 26.9294 20.946 24.3044 20.946C21.6794 20.946 19.7054 22.857 19.7054 25.65C19.7054 28.443 21.6794 30.354 24.3044 30.354ZM45.6981 25.356C47.3361 25.881 48.3861 27.141 48.3861 28.989C48.3861 31.53 46.3701 33 42.5061 33H34.9041V18.3H42.0861C45.7611 18.3 47.6511 19.833 47.6511 22.122C47.6511 23.592 46.8951 24.726 45.6981 25.356ZM41.6661 20.862H38.2851V24.327H41.6661C43.3251 24.327 44.2281 23.739 44.2281 22.584C44.2281 21.429 43.3251 20.862 41.6661 20.862ZM42.2541 30.438C44.0181 30.438 44.9631 29.892 44.9631 28.632C44.9631 27.393 44.0181 26.805 42.2541 26.805H38.2851V30.438H42.2541ZM58.0808 33.252C53.4398 33.252 50.0378 30.018 50.0378 25.65C50.0378 21.282 53.4398 18.048 58.0808 18.048C62.7008 18.048 66.1238 21.261 66.1238 25.65C66.1238 30.039 62.7008 33.252 58.0808 33.252ZM58.0808 30.354C60.7058 30.354 62.6798 28.443 62.6798 25.65C62.6798 22.857 60.7058 20.946 58.0808 20.946C55.4558 20.946 53.4818 22.857 53.4818 25.65C53.4818 28.443 55.4558 30.354 58.0808 30.354ZM71.5204 33V21.072H66.8164V18.3H79.6264V21.072H74.9224V33H71.5204ZM81.4569 33V18.3H84.8589V33H81.4569ZM95.3825 33.252C90.8255 33.252 87.4235 30.081 87.4235 25.65C87.4235 21.219 90.8255 18.048 95.4035 18.048C97.9445 18.048 100.065 18.972 101.451 20.652L99.2675 22.668C98.2805 21.534 97.0415 20.946 95.5715 20.946C92.8205 20.946 90.8675 22.878 90.8675 25.65C90.8675 28.422 92.8205 30.354 95.5715 30.354C97.0415 30.354 98.2805 29.766 99.2675 28.611L101.451 30.627C100.065 32.328 97.9445 33.252 95.3825 33.252ZM108.456 33.252C106.125 33.252 103.773 32.559 102.471 31.551L103.626 28.989C104.865 29.892 106.713 30.522 108.477 30.522C110.493 30.522 111.312 29.85 111.312 28.947C111.312 26.196 102.765 28.086 102.765 22.626C102.765 20.127 104.781 18.048 108.96 18.048C110.808 18.048 112.698 18.489 114.063 19.35L113.013 21.933C111.648 21.156 110.241 20.778 108.939 20.778C106.923 20.778 106.146 21.534 106.146 22.458C106.146 25.167 114.693 23.298 114.693 28.695C114.693 31.152 112.656 33.252 108.456 33.252Z" fill="white"/>
<path d="M144.047 23.7261L147.087 18.2519C147.087 18.2519 144.959 17.9459 143.437 16.7299C141.917 15.5139 141.309 14.2959 141.309 14.2959L134.921 23.7257L144.047 23.7261Z" fill="white"/>
<path d="M140.395 10.9501C140.395 10.9501 140.479 9.26248 141.309 7.60411C142.137 5.94768 143.437 4.86611 143.437 4.86611L134.311 2.43408C134.311 2.43408 134.311 3.6501 134.007 4.5621C133.703 5.4741 132.487 6.38809 132.487 6.38809L140.395 10.9501Z" fill="white"/>
<path d="M123.969 12.168L129.445 7.30001C129.445 7.30001 127.923 6.996 127.011 6.38801C126.099 5.77997 125.185 4.56201 125.185 4.56201L120.927 9.42997C120.927 9.42997 122.143 10.038 122.753 10.646C123.361 11.254 123.969 12.168 123.969 12.168Z" fill="white"/>
<path d="M146.935 30.1142C146.935 27.5945 144.893 25.5522 142.373 25.5522H133.247C130.727 25.5522 128.685 27.5946 128.685 30.1142V32.8522H146.935V30.1142Z" fill="white"/>
<path d="M147.849 5.47412C144.824 5.47412 142.373 7.92566 142.373 10.9503C142.373 13.975 144.824 16.4265 147.849 16.4265C150.874 16.4265 153.323 13.975 153.323 10.9503C153.323 7.92566 150.874 5.47412 147.849 5.47412ZM147.849 8.21212C149.361 8.21212 150.587 9.43786 150.587 10.9501C150.587 12.4624 149.361 13.6881 147.849 13.6881C146.337 13.6881 145.111 12.4624 145.111 10.9501C145.111 9.43786 146.337 8.21212 147.849 8.21212Z" fill="white"/>
<path d="M129.597 0C128.085 0 126.859 1.22574 126.859 2.738C126.859 4.25025 128.085 5.47404 129.597 5.47404C131.109 5.47404 132.335 4.25025 132.335 2.738C132.335 1.22574 131.109 0 129.597 0ZM129.597 1.824C130.102 1.824 130.509 2.23324 130.509 2.73795C130.509 3.24072 130.102 3.64995 129.597 3.64995C129.092 3.64995 128.685 3.24071 128.685 2.73795C128.685 2.23323 129.092 1.824 129.597 1.824Z" fill="white"/>
<path d="M114.083 15.5143C114.083 14.6121 114.35 13.7293 114.853 12.979C115.354 12.2288 116.065 11.6441 116.899 11.2973C117.733 10.9523 118.651 10.8627 119.536 11.0381C120.421 11.2154 121.235 11.65 121.873 12.2872C122.51 12.9264 122.944 13.7391 123.122 14.6238C123.297 15.5085 123.207 16.4264 122.863 17.2604C122.516 18.0945 121.931 18.8058 121.181 19.3086C120.43 19.8094 119.548 20.0764 118.645 20.0764V17.0305C118.946 17.0305 119.24 16.9409 119.489 16.7752C119.739 16.6076 119.932 16.3718 120.047 16.0951C120.162 15.8164 120.193 15.5124 120.134 15.2182C120.076 14.9239 119.932 14.6531 119.719 14.4406C119.507 14.2302 119.236 14.084 118.942 14.0255C118.647 13.9671 118.343 13.9983 118.067 14.1132C117.788 14.2282 117.552 14.4211 117.385 14.6706C117.219 14.92 117.129 15.2143 117.129 15.5144L114.083 15.5143Z" fill="white"/>
</svg>
