<svg width="36" height="37" viewBox="0 0 36 37" fill="none" xmlns="http://www.w3.org/2000/svg">
<path d="M25.0402 14.517C25.0402 8.79878 20.4013 4.16336 14.6783 4.16336C8.95576 4.16336 4.31646 8.79899 4.31646 14.517C4.31646 20.2351 8.95576 24.8707 14.6783 24.8707C20.4013 24.8707 25.0402 20.2353 25.0402 14.517ZM28.4768 14.517C28.4768 22.1317 22.2992 28.3046 14.6783 28.3046C7.05779 28.3046 0.879883 22.1315 0.879883 14.517C0.879883 6.90252 7.05779 0.729492 14.6783 0.729492C22.2992 0.729492 28.4768 6.90233 28.4768 14.517Z" fill="#333366"/>
<path d="M25.3054 29.4577L25.1789 29.331C23.4711 27.6201 22.6614 26.8124 21.6813 25.8467C20.5443 24.7267 20.2271 23.4986 21.3433 22.4046C22.4588 21.3119 23.6487 21.6587 24.7858 22.7949C26.0134 24.0225 27.139 25.1479 29.1144 27.1222L29.8359 27.8434C32.1843 30.1906 33.4609 31.4669 34.8862 32.8924C36.0176 34.023 36.3381 35.2446 35.2003 36.3409C34.0728 37.427 32.9048 37.0868 31.7733 35.9329C30.7871 34.9276 29.9715 34.111 28.2002 32.3482L28.1268 32.2752C27.4516 31.6033 27.1223 31.2753 26.7328 30.8862C26.3312 30.485 25.981 30.1345 25.3054 29.4577Z" fill="#333366"/>
</svg>
