<svg width="24" height="22" viewBox="0 0 24 22" fill="none" xmlns="http://www.w3.org/2000/svg">
<path d="M11.1613 16.9869L5.08815 21.0876L7.27109 14.1961L7.27114 14.1962L7.2733 14.189C7.43886 13.6377 7.26695 13.0578 6.76643 12.6994L1.13574 8.59809H8.39743C8.97717 8.59809 9.54374 8.26314 9.72798 7.66806L11.9908 1.09701L14.2565 7.67635L14.2564 7.67641L14.2612 7.68929C14.4711 8.2485 15.0109 8.59809 15.5842 8.59809H22.8838L17.2394 12.7267L17.2333 12.7311L17.2274 12.7357C16.789 13.0769 16.5624 13.6395 16.7351 14.2144L16.735 14.2144L16.7373 14.2216L18.9225 21.1203L12.7638 16.9848L12.7639 16.9847L12.7529 16.9777C12.2773 16.6761 11.6331 16.6622 11.1613 16.9869ZM11.7277 0.334583L11.7279 0.334914L11.7277 0.334583ZM4.42586 21.5226C4.43925 21.5159 4.45384 21.51 4.46947 21.5053L4.42097 21.5381L4.42586 21.5226Z" fill="#333366" stroke="#333366"/>
</svg>
