<svg width="36" height="20" viewBox="0 0 36 20" fill="none" xmlns="http://www.w3.org/2000/svg">
<path fill-rule="evenodd" clip-rule="evenodd" d="M0.0883113 2.22157C0.107932 2.64336 0.291073 3.04092 0.598896 3.32995L16.8187 19.0043C17.1215 19.2972 17.5264 19.4609 17.9477 19.4609C18.369 19.4609 18.7738 19.2972 19.0767 19.0043L35.2965 3.32994C35.4525 3.18243 35.5777 3.00543 35.6649 2.8092C35.7521 2.61296 35.7995 2.40139 35.8043 2.18672C35.8092 1.97204 35.7714 1.75854 35.6933 1.55856C35.6151 1.35857 35.498 1.17608 35.3488 1.02165C35.1996 0.867216 35.0212 0.743906 34.8241 0.658854C34.6269 0.573801 34.4148 0.528696 34.2001 0.526148C33.9854 0.5236 33.7723 0.563664 33.5732 0.644015C33.3741 0.724366 33.1929 0.843407 33.0401 0.994257L17.9477 15.5792L2.8553 0.994259C2.62324 0.763567 2.32691 0.608362 2.00512 0.548981C1.68334 0.489599 1.35113 0.528818 1.05202 0.661489C0.752904 0.794161 0.50085 1.0141 0.328884 1.29248C0.156919 1.57087 0.073065 1.89471 0.0883113 2.22157Z" fill="white"/>
</svg>
