<svg width="20" height="36" viewBox="0 0 20 36" fill="none" xmlns="http://www.w3.org/2000/svg">
<path fill-rule="evenodd" clip-rule="evenodd" d="M18.1366 0.08819C17.7148 0.107811 17.3172 0.290951 17.0282 0.598775L1.35389 16.8186C1.06097 17.1214 0.897217 17.5262 0.897217 17.9476C0.897217 18.3689 1.06097 18.7737 1.35389 19.0766L17.0282 35.2963C17.1757 35.4524 17.3527 35.5776 17.549 35.6648C17.7452 35.752 17.9568 35.7994 18.1714 35.8042C18.3861 35.8091 18.5996 35.7713 18.7996 35.6931C18.9996 35.6149 19.1821 35.4979 19.3365 35.3487C19.4909 35.1995 19.6142 35.0211 19.6993 34.824C19.7844 34.6268 19.8295 34.4147 19.832 34.2C19.8346 33.9853 19.7945 33.7722 19.7141 33.5731C19.6338 33.374 19.5147 33.1927 19.3639 33.0399L4.77893 17.9476L19.3639 2.85518C19.5946 2.62312 19.7498 2.32678 19.8092 2.005C19.8686 1.68322 19.8293 1.35101 19.6967 1.05189C19.564 0.752782 19.3441 0.500728 19.0657 0.328763C18.7873 0.156798 18.4634 0.0729437 18.1366 0.08819Z" fill="white"/>
</svg>
