<svg width="19" height="36" viewBox="0 0 19 36" fill="none" xmlns="http://www.w3.org/2000/svg">
<path fill-rule="evenodd" clip-rule="evenodd" d="M1.75648 35.8029C2.17827 35.7833 2.57583 35.6002 2.86486 35.2923L18.5392 19.0725C18.8321 18.7697 18.9958 18.3649 18.9958 17.9436C18.9958 17.5222 18.8321 17.1174 18.5392 16.8146L2.86486 0.594774C2.71734 0.438737 2.54034 0.313509 2.34411 0.226331C2.14788 0.139154 1.9363 0.091764 1.72163 0.0869003C1.50695 0.0820328 1.29345 0.119787 1.09347 0.197984C0.893485 0.276182 0.710995 0.393263 0.556561 0.542455C0.402127 0.691648 0.278817 0.869989 0.193765 1.06715C0.108712 1.26431 0.0636071 1.47639 0.0610589 1.6911C0.0585107 1.90581 0.0985746 2.1189 0.178925 2.31803C0.259276 2.51715 0.378318 2.69837 0.529168 2.85118L15.1141 17.9436L0.529171 33.0359C0.298479 33.268 0.143274 33.5643 0.0838927 33.8861C0.0245112 34.2079 0.0637301 34.5401 0.196402 34.8392C0.329073 35.1383 0.549011 35.3904 0.827394 35.5624C1.10578 35.7343 1.42962 35.8182 1.75648 35.8029Z" fill="white"/>
</svg>
