<svg width="36" height="20" viewBox="0 0 36 20" fill="none" xmlns="http://www.w3.org/2000/svg">
<path fill-rule="evenodd" clip-rule="evenodd" d="M35.8028 17.6017C35.7832 17.1799 35.6 16.7823 35.2922 16.4933L19.0724 0.818981C18.7696 0.526058 18.3648 0.362304 17.9434 0.362304C17.5221 0.362304 17.1173 0.526058 16.8144 0.818981L0.59465 16.4933C0.438613 16.6408 0.313384 16.8178 0.226207 17.014C0.13903 17.2103 0.0916397 17.4219 0.086776 17.6365C0.0819084 17.8512 0.119662 18.0647 0.19786 18.2647C0.276057 18.4647 0.393138 18.6472 0.542331 18.8016C0.691524 18.956 0.869865 19.0793 1.06703 19.1644C1.26419 19.2494 1.47627 19.2945 1.69098 19.2971C1.90569 19.2996 2.11877 19.2596 2.3179 19.1792C2.51703 19.0989 2.69824 18.9798 2.85105 18.829L17.9434 4.24401L33.0358 18.829C33.2679 19.0597 33.5642 19.2149 33.886 19.2743C34.2078 19.3336 34.54 19.2944 34.8391 19.1618C35.1382 19.0291 35.3903 18.8091 35.5622 18.5308C35.7342 18.2524 35.818 17.9285 35.8028 17.6017Z" fill="white"/>
</svg>
