<svg width="67" height="67" viewBox="0 0 67 67" fill="none" xmlns="http://www.w3.org/2000/svg">
<path d="M-5.36922e-07 54.7167C0.00384146 57.9732 1.29921 61.0953 3.60195 63.3981C5.90469 65.7008 9.02677 66.9962 12.2833 67C12.5795 67 12.8635 66.8824 13.0729 66.6729C13.2824 66.4635 13.4 66.1795 13.4 65.8833C13.4 65.5872 13.2824 65.3031 13.0729 65.0937C12.8635 64.8843 12.5795 64.7667 12.2833 64.7667C9.61891 64.7634 7.06454 63.7035 5.1805 61.8195C3.29646 59.9355 2.23658 57.3811 2.23333 54.7167C2.23333 54.4205 2.11568 54.1365 1.90627 53.9271C1.69685 53.7176 1.41282 53.6 1.11667 53.6C0.820508 53.6 0.536479 53.7176 0.327063 53.9271C0.117648 54.1365 -5.49867e-07 54.4205 -5.36922e-07 54.7167Z" fill="#333366"/>
<path d="M4.46667 54.7167C4.46904 56.789 5.29334 58.7759 6.75874 60.2413C8.22413 61.7067 10.211 62.531 12.2833 62.5333C12.5795 62.5333 12.8635 62.4157 13.0729 62.2063C13.2824 61.9968 13.4 61.7128 13.4 61.4167C13.4 61.1205 13.2824 60.8365 13.0729 60.6271C12.8635 60.4176 12.5795 60.3 12.2833 60.3C10.8031 60.2982 9.38398 59.7094 8.33729 58.6627C7.29059 57.616 6.70178 56.1969 6.70001 54.7167C6.70001 54.4205 6.58236 54.1365 6.37294 53.9271C6.16353 53.7176 5.8795 53.6 5.58334 53.6C5.28718 53.6 5.00315 53.7176 4.79374 53.9271C4.58432 54.1365 4.46667 54.4205 4.46667 54.7167Z" fill="#333366"/>
<path d="M8.93329 54.7167C8.93329 55.6051 9.28623 56.4572 9.91448 57.0855C10.5427 57.7137 11.3948 58.0667 12.2833 58.0667C12.5794 58.0667 12.8635 57.949 13.0729 57.7396C13.2823 57.5302 13.4 57.2462 13.4 56.95C13.4 56.6538 13.2823 56.3698 13.0729 56.1604C12.8635 55.951 12.5794 55.8333 12.2833 55.8333C11.9871 55.8333 11.7031 55.7157 11.4937 55.5063C11.2843 55.2969 11.1666 55.0128 11.1666 54.7167C11.1666 54.4205 11.049 54.1365 10.8396 53.9271C10.6301 53.7176 10.3461 53.6 10.05 53.6C9.7538 53.6 9.46977 53.7176 9.26035 53.9271C9.05094 54.1365 8.93329 54.4205 8.93329 54.7167Z" fill="#333366"/>
<path d="M2.23333 12.2833C2.23629 9.61882 3.29607 7.06428 5.18017 5.18018C7.06427 3.29608 9.61881 2.2363 12.2833 2.23334C12.5795 2.23334 12.8635 2.11569 13.0729 1.90628C13.2824 1.69686 13.4 1.41283 13.4 1.11667C13.4 0.820517 13.2824 0.536487 13.0729 0.327072C12.8635 0.117656 12.5795 8.98688e-06 12.2833 8.99982e-06C9.02677 0.00385054 5.90469 1.29922 3.60195 3.60196C1.29921 5.9047 0.00384167 9.02678 -4.88111e-08 12.2833C-3.58656e-08 12.5795 0.117648 12.8635 0.327064 13.0729C0.53648 13.2824 0.820508 13.4 1.11667 13.4C1.41283 13.4 1.69685 13.2824 1.90627 13.0729C2.11568 12.8635 2.23333 12.5795 2.23333 12.2833Z" fill="#333366"/>
<path d="M6.70001 12.2833C6.70178 10.8031 7.29059 9.38398 8.33729 8.33729C9.38398 7.29059 10.8031 6.70178 12.2833 6.70001C12.5795 6.70001 12.8635 6.58236 13.0729 6.37295C13.2824 6.16353 13.4 5.8795 13.4 5.58334C13.4 5.28718 13.2824 5.00315 13.0729 4.79374C12.8635 4.58432 12.5795 4.46668 12.2833 4.46668C10.211 4.46904 8.22413 5.29334 6.75873 6.75873C5.29334 8.22413 4.46904 10.211 4.46667 12.2833C4.46667 12.5795 4.58432 12.8635 4.79374 13.0729C5.00315 13.2824 5.28718 13.4 5.58334 13.4C5.8795 13.4 6.16353 13.2824 6.37294 13.0729C6.58236 12.8635 6.70001 12.5795 6.70001 12.2833Z" fill="#333366"/>
<path d="M11.1666 12.2833C11.1666 11.9872 11.2843 11.7032 11.4937 11.4937C11.7031 11.2843 11.9871 11.1667 12.2833 11.1667C12.5794 11.1667 12.8635 11.049 13.0729 10.8396C13.2823 10.6302 13.4 10.3462 13.4 10.05C13.4 9.75385 13.2823 9.46982 13.0729 9.26041C12.8635 9.05099 12.5794 8.93334 12.2833 8.93334C11.3948 8.93334 10.5427 9.28629 9.91448 9.91454C9.28623 10.5428 8.93329 11.3949 8.93329 12.2833C8.93329 12.5795 9.05094 12.8635 9.26035 13.0729C9.46977 13.2824 9.7538 13.4 10.05 13.4C10.3461 13.4 10.6301 13.2824 10.8396 13.0729C11.049 12.8635 11.1666 12.5795 11.1666 12.2833Z" fill="#333366"/>
<path d="M64.7668 54.7167C64.7635 57.3811 63.7036 59.9355 61.8196 61.8195C59.9356 63.7035 57.3812 64.7634 54.7168 64.7667C54.4206 64.7667 54.1366 64.8843 53.9272 65.0937C53.7177 65.3031 53.6001 65.5872 53.6001 65.8833C53.6001 66.1795 53.7177 66.4635 53.9272 66.6729C54.1366 66.8824 54.4206 67 54.7168 67C57.9733 66.9962 61.0954 65.7008 63.3982 63.3981C65.7009 61.0953 66.9963 57.9732 67.0001 54.7167C67.0001 54.4205 66.8824 54.1365 66.673 53.9271C66.4636 53.7176 66.1796 53.6 65.8834 53.6C65.5873 53.6 65.3032 53.7176 65.0938 53.9271C64.8844 54.1365 64.7668 54.4205 64.7668 54.7167Z" fill="#333366"/>
<path d="M60.3001 54.7167C60.2983 56.1969 59.7095 57.616 58.6628 58.6627C57.6161 59.7094 56.197 60.2982 54.7168 60.3C54.4206 60.3 54.1366 60.4176 53.9272 60.6271C53.7177 60.8365 53.6001 61.1205 53.6001 61.4167C53.6001 61.7128 53.7177 61.9968 53.9272 62.2063C54.1366 62.4157 54.4206 62.5333 54.7168 62.5333C56.7891 62.531 58.776 61.7067 60.2414 60.2413C61.7068 58.7759 62.5311 56.789 62.5334 54.7167C62.5334 54.4205 62.4158 54.1365 62.2064 53.9271C61.997 53.7176 61.7129 53.6 61.4168 53.6C61.1206 53.6 60.8366 53.7176 60.6272 53.9271C60.4177 54.1365 60.3001 54.4205 60.3001 54.7167Z" fill="#333366"/>
<path d="M55.8334 54.7167C55.8334 55.0128 55.7158 55.2969 55.5064 55.5063C55.297 55.7157 55.0129 55.8333 54.7168 55.8333C54.4206 55.8333 54.1366 55.951 53.9272 56.1604C53.7177 56.3698 53.6001 56.6538 53.6001 56.95C53.6001 57.2462 53.7177 57.5302 53.9272 57.7396C54.1366 57.949 54.4206 58.0667 54.7168 58.0667C55.6052 58.0667 56.4573 57.7137 57.0856 57.0855C57.7138 56.4572 58.0668 55.6051 58.0668 54.7167C58.0668 54.4205 57.9491 54.1365 57.7397 53.9271C57.5303 53.7176 57.2463 53.6 56.9501 53.6C56.6539 53.6 56.3699 53.7176 56.1605 53.9271C55.9511 54.1365 55.8334 54.4205 55.8334 54.7167Z" fill="#333366"/>
<path d="M53.6001 1.11668C53.6001 1.41283 53.7177 1.69686 53.9272 1.90628C54.1366 2.11569 54.4206 2.23334 54.7168 2.23334C57.3813 2.2363 59.9358 3.29608 61.8199 5.18018C63.704 7.06428 64.7638 9.61882 64.7668 12.2833C64.7668 12.5795 64.8844 12.8635 65.0938 13.0729C65.3032 13.2824 65.5873 13.4 65.8834 13.4C66.1796 13.4 66.4636 13.2824 66.673 13.0729C66.8825 12.8635 67.0001 12.5795 67.0001 12.2833C66.9963 9.02678 65.7009 5.90469 63.3982 3.60196C61.0954 1.29922 57.9733 0.00385075 54.7168 9.48793e-06C54.4206 9.50088e-06 54.1366 0.117657 53.9272 0.327072C53.7177 0.536488 53.6001 0.820518 53.6001 1.11668Z" fill="#333366"/>
<path d="M62.5334 12.2833C62.5311 10.211 61.7068 8.22413 60.2414 6.75873C58.776 5.29334 56.7891 4.46904 54.7168 4.46668C54.4206 4.46668 54.1366 4.58432 53.9272 4.79374C53.7177 5.00315 53.6001 5.28718 53.6001 5.58334C53.6001 5.8795 53.7177 6.16353 53.9272 6.37295C54.1366 6.58236 54.4206 6.70001 54.7168 6.70001C56.197 6.70178 57.6161 7.29059 58.6628 8.33729C59.7095 9.38398 60.2983 10.8031 60.3001 12.2833C60.3001 12.5795 60.4177 12.8635 60.6272 13.0729C60.8366 13.2824 61.1206 13.4 61.4168 13.4C61.7129 13.4 61.997 13.2824 62.2064 13.0729C62.4158 12.8635 62.5334 12.5795 62.5334 12.2833Z" fill="#333366"/>
<path d="M58.0668 12.2833C58.0668 11.3949 57.7138 10.5428 57.0856 9.91454C56.4573 9.28629 55.6052 8.93334 54.7168 8.93334C54.4206 8.93334 54.1366 9.05099 53.9272 9.26041C53.7177 9.46982 53.6001 9.75385 53.6001 10.05C53.6001 10.3462 53.7177 10.6302 53.9272 10.8396C54.1366 11.049 54.4206 11.1667 54.7168 11.1667C55.0129 11.1667 55.297 11.2843 55.5064 11.4937C55.7158 11.7032 55.8334 11.9872 55.8334 12.2833C55.8334 12.5795 55.9511 12.8635 56.1605 13.0729C56.3699 13.2824 56.6539 13.4 56.9501 13.4C57.2463 13.4 57.5303 13.2824 57.7397 13.0729C57.9491 12.8635 58.0668 12.5795 58.0668 12.2833Z" fill="#333366"/>
<path d="M33.9235 18.4642L13.5459 18.4642C13.5459 18.4642 12.2244 18.1165 11.1117 20.2725C9.99889 22.4285 10.0684 33.6258 10.0684 33.6258C10.0684 33.6258 9.92934 43.7103 10.4162 45.9358C10.903 48.1614 11.3203 49.2046 12.9199 49.4828C14.5195 49.761 34.0626 49.6914 34.0626 49.6914L54.5098 49.6914C54.5098 49.6914 55.8312 49.9696 56.944 47.8136C58.0568 45.6576 57.9872 34.4603 57.9872 34.4603C57.9872 34.4603 58.0568 24.3758 57.6395 22.1503C57.1526 19.9248 56.7353 18.8815 55.1357 18.6033C53.5361 18.3251 33.993 18.4642 33.993 18.4642L33.9235 18.4642Z" fill="#333366" stroke="#333366" stroke-miterlimit="10"/>
<path d="M16.0496 49.6219L16.0496 18.4643" stroke="white" stroke-miterlimit="10"/>
<path d="M51.7972 49.6219L51.7972 18.3947" stroke="white" stroke-miterlimit="10"/>
<path d="M55.7484 32.0261L55.7484 35.9208C55.7484 36.201 55.555 36.3945 55.2747 36.3945L54.3011 36.3945C54.0208 36.3945 53.8274 36.201 53.8274 35.9208L53.8274 32.0261C53.8274 31.7458 54.0208 31.5524 54.3011 31.5524L55.2747 31.5524C55.555 31.5524 55.7484 31.7458 55.7484 32.0261Z" fill="#333366" stroke="white"/>
<path d="M14.0195 32.0957L14.0195 35.9904C14.0195 36.2707 13.8261 36.4641 13.5459 36.4641L12.5722 36.4641C12.2919 36.4641 12.0985 36.2707 12.0985 35.9904L12.0985 32.0957C12.0985 31.8155 12.2919 31.6221 12.5722 31.6221L13.5459 31.6221C13.8261 31.6221 14.0195 31.8155 14.0195 32.0957Z" fill="#333366" stroke="white"/>
<path d="M54.7881 41.5674C55.2801 41.5674 55.679 41.9663 55.679 42.4584C55.679 42.9505 55.2801 43.3494 54.7881 43.3494C54.296 43.3494 53.8971 42.9505 53.8971 42.4584C53.8971 41.9663 54.296 41.5674 54.7881 41.5674Z" fill="white" stroke="white"/>
<path d="M56.179 26.2536C56.179 25.4854 55.5563 24.8627 54.7881 24.8627C54.0199 24.8627 53.3971 25.4854 53.3971 26.2536C53.3971 27.0219 54.0199 27.6446 54.7881 27.6446C55.5563 27.6446 56.179 27.0219 56.179 26.2536Z" stroke="white" stroke-miterlimit="10"/>
<path d="M13.2676 24.9454C13.7597 24.9454 14.1586 25.3443 14.1586 25.8364C14.1586 26.3285 13.7597 26.7274 13.2676 26.7274C12.7755 26.7274 12.3766 26.3285 12.3766 25.8364C12.3766 25.3443 12.7755 24.9454 13.2676 24.9454Z" fill="white" stroke="white"/>
<path d="M14.45 41.9716C14.45 41.2034 13.8272 40.5807 13.059 40.5807C12.2908 40.5807 11.668 41.2034 11.668 41.9716C11.668 42.7399 12.2908 43.3626 13.059 43.3626C13.8272 43.3626 14.45 42.7399 14.45 41.9716Z" stroke="white" stroke-miterlimit="10"/>
</svg>
