<svg width="89" height="55" viewBox="0 0 89 55" fill="none" xmlns="http://www.w3.org/2000/svg">
<path d="M72.4772 9.07906C74.9437 9.07906 76.9432 7.10261 76.9432 4.66453C76.9432 2.22645 74.9437 0.25 72.4772 0.25C70.0107 0.25 68.0112 2.22645 68.0112 4.66453C68.0112 7.10261 70.0107 9.07906 72.4772 9.07906Z" fill="#333366"/>
<path d="M86.386 23.6503C85.1418 23.4385 80.1814 22.5914 79.9013 22.4937C79.5799 22.3878 79.9013 22.4937 79.7942 22.3389C79.687 22.1842 75.3529 13.1515 74.9327 12.6791C74.5125 12.2067 73.3506 11.0094 71.7109 10.4881C70.0712 9.96684 68.4315 10.7976 68.4315 10.7976C68.4315 10.7976 60.2988 15.3913 59.7715 15.652C59.2441 15.9126 58.7662 16.8493 58.7662 16.8493L54.9677 23.9109C54.6546 24.3019 54.4733 24.7905 54.4733 25.32C54.4733 26.5743 55.5033 27.5924 56.7722 27.5924C58.0411 27.5924 58.7662 26.8512 59.0052 25.8494L62.5483 19.2276L64.7648 17.9977C64.6082 18.4701 62.573 28.2603 62.573 28.2603L60.513 39.8504L53.295 48.4515C52.7759 48.932 52.4463 49.608 52.4463 50.3655C52.4463 51.8153 53.6328 52.9882 55.0995 52.9882C56.5662 52.9882 56.7804 52.5483 57.2583 51.8805C58.5849 50.3411 65.2345 42.6116 65.8772 41.8622C66.594 41.0233 66.7753 40.6079 66.8824 40.0622C66.9895 39.5165 68.1761 32.4386 68.1761 32.4386L74.9904 39.1744V51.0578H75.0068C75.1469 52.3854 76.284 53.428 77.6601 53.428C79.0361 53.428 80.1732 52.3936 80.3133 51.0578H80.3298V50.7402C80.3133 48.932 80.2638 39.9156 80.3298 37.8794C80.4121 35.607 79.5882 35.1101 79.4069 34.9065C79.2256 34.6947 72.8563 28.0159 72.8563 28.0159L74.257 21.3045C74.257 21.3045 76.078 24.8313 76.2675 25.2222C76.4488 25.6132 77.0338 26.3218 77.6436 26.4521C78.2533 26.5824 85.8339 28.0974 85.8339 28.0974V28.0811C85.9411 28.0974 86.0564 28.1137 86.1718 28.1137C87.4242 28.1137 88.4377 27.1118 88.4377 25.8738C88.4212 24.7009 87.5313 23.7561 86.386 23.6503Z" fill="#333366"/>
<mask id="path-3-inside-1_496_63" fill="white">
<path d="M46.044 46.8795L27.8752 46.4886V47.8325C27.867 48.2804 27.4962 48.647 27.0348 48.647H0.898137C0.40375 48.647 0 49.046 0 49.5347V50.8216C0 51.294 0.38727 51.6768 0.865178 51.6768L33.5936 51.7827L35.6618 51.4732L37.6394 51.4162L46.0357 48.818V46.8632"/>
</mask>
<path d="M46.044 46.8795L27.8752 46.4886V47.8325C27.867 48.2804 27.4962 48.647 27.0348 48.647H0.898137C0.40375 48.647 0 49.046 0 49.5347V50.8216C0 51.294 0.38727 51.6768 0.865178 51.6768L33.5936 51.7827L35.6618 51.4732L37.6394 51.4162L46.0357 48.818V46.8632" fill="#333366"/>
<path d="M27.8752 46.4886L27.8967 45.4888L26.8752 45.4668V46.4886H27.8752ZM27.8752 47.8325L28.8751 47.8509L28.8752 47.8417V47.8325H27.8752ZM0.865178 51.6768L0.868413 50.6768H0.865178V51.6768ZM33.5936 51.7827L33.5904 52.7827L33.6664 52.783L33.7416 52.7717L33.5936 51.7827ZM35.6618 51.4732L35.633 50.4736L35.5731 50.4754L35.5138 50.4842L35.6618 51.4732ZM37.6394 51.4162L37.6682 52.4158L37.8046 52.4119L37.935 52.3715L37.6394 51.4162ZM46.0357 48.818L46.3313 49.7733L47.0357 49.5553V48.818H46.0357ZM46.0655 45.8797L27.8967 45.4888L27.8537 47.4883L46.0225 47.8793L46.0655 45.8797ZM26.8752 46.4886V47.8325H28.8752V46.4886H26.8752ZM26.8754 47.8141C26.8773 47.7106 26.9575 47.647 27.0348 47.647V49.647C28.0349 49.647 28.8567 48.8503 28.8751 47.8509L26.8754 47.8141ZM27.0348 47.647H0.898137V49.647H27.0348V47.647ZM0.898137 47.647C-0.137578 47.647 -1 48.4829 -1 49.5347H1C1 49.5719 0.983583 49.6021 0.966671 49.6188C0.949931 49.6353 0.924808 49.647 0.898137 49.647V47.647ZM-1 49.5347V50.8216H1V49.5347H-1ZM-1 50.8216C-1 51.8572 -0.154062 52.6768 0.865178 52.6768V50.6768C0.928602 50.6768 1 50.7309 1 50.8216H-1ZM0.861943 52.6768L33.5904 52.7827L33.5969 50.7827L0.868413 50.6769L0.861943 52.6768ZM33.7416 52.7717L35.8098 52.4622L35.5138 50.4842L33.4456 50.7937L33.7416 52.7717ZM35.6906 52.4728L37.6682 52.4158L37.6106 50.4166L35.633 50.4736L35.6906 52.4728ZM37.935 52.3715L46.3313 49.7733L45.7401 47.8627L37.3438 50.4609L37.935 52.3715ZM47.0357 48.818V46.8632H45.0357V48.818H47.0357Z" fill="#333366" mask="url(#path-3-inside-1_496_63)"/>
<path d="M33.3052 53.3954C35.0436 53.3954 36.4528 52.0024 36.4528 50.2841C36.4528 48.5657 35.0436 47.1727 33.3052 47.1727C31.5668 47.1727 30.1576 48.5657 30.1576 50.2841C30.1576 52.0024 31.5668 53.3954 33.3052 53.3954Z" fill="#333366" stroke="#333366" stroke-width="3" stroke-miterlimit="10"/>
<path d="M29.1536 47.3147H46.3335C46.8526 47.3147 47.2729 46.9156 47.2976 46.4025C47.413 43.6984 47.5283 35.3254 45.2541 25.7063C45.2541 25.7063 44.8669 22.3506 41.9665 19.7361C41.9665 19.7361 40.5657 18.7669 39.4368 18.213C37.8713 17.4393 37.4181 17.2682 35.3911 16.6736C35.3664 16.6655 35.3581 16.6736 35.0697 16.6003C34.3611 16.4212 33.7102 16.3967 32.6308 16.2827C32.4495 16.2664 32.2682 16.2501 32.0869 16.2501H29.0629C28.5109 16.242 28.0577 16.6736 28.0577 17.2194L28 46.1663C28 46.8016 28.5191 47.3229 29.1618 47.3229L29.1536 47.3147Z" stroke="#333366" stroke-width="3" stroke-miterlimit="10"/>
<path d="M46.7322 49.3098V49.3098L37.3885 49.2368C37.5051 49.8341 37.6759 50.81 37.7425 51.7621C37.7438 51.763 37.7452 51.7632 37.7464 51.7632H43.3577C43.7977 51.7632 44.2304 51.7252 44.6727 51.6485L46.7322 49.3098ZM46.7322 49.3098H46.7361C46.9103 49.3098 47.0353 49.4416 47.0353 49.5999V50.8949C47.0353 51.089 46.8921 51.2638 46.6877 51.2975L46.6877 51.2975L46.6832 51.2983L44.6731 51.6484L46.7322 49.3098Z" fill="#333366" stroke="#333366"/>
<path d="M6.27876 53.4932C7.07968 53.4932 7.72896 52.8514 7.72896 52.0597C7.72896 51.268 7.07968 50.6262 6.27876 50.6262C5.47783 50.6262 4.82855 51.268 4.82855 52.0597C4.82855 52.8514 5.47783 53.4932 6.27876 53.4932Z" fill="#333366" stroke="#333366" stroke-width="2" stroke-miterlimit="10"/>
<path d="M42.0641 41.0233H47.4859V42.5708H43.0776C42.8716 42.5708 42.6903 42.4731 42.5667 42.3102L41.8911 41.341C41.8004 41.2106 41.8911 41.0233 42.0641 41.0233Z" fill="#333366" stroke="#333366" stroke-width="3" stroke-miterlimit="10"/>
</svg>
