<svg width="43" height="68" viewBox="0 0 43 68" fill="none" xmlns="http://www.w3.org/2000/svg">
<path fill-rule="evenodd" clip-rule="evenodd" d="M27.8252 40.3835C22.4074 35.0668 13.1105 38.8519 13.1105 46.3669C13.1105 53.8819 22.4071 57.6699 27.8252 52.3503C31.191 49.0456 31.191 43.6885 27.8252 40.3835ZM36.5556 17.7946L32.5433 20.0716L26.9177 10.5068C25.3401 7.82515 22.8105 5.90929 19.7502 5.14356C9.5995 2.60165 0.886629 13.1654 6.222 22.2382L10.1216 28.868C24.1691 19.8652 43 29.756 43 46.3673C43 57.9007 33.4779 67.25 21.7314 67.25C2.97181 67.25 -6.59435 44.9966 6.49203 31.7981L2.20696 24.5103C0.0214146 20.795 -0.568679 16.4161 0.561101 12.2726C4.30353 -1.44399 23.5788 -4.27421 30.9305 8.22534L36.5556 17.7946ZM19.5663 42.5757C19.5663 39.7776 23.8929 39.7776 23.8929 42.5757V50.1577C23.8929 52.9558 19.5663 52.9558 19.5663 50.1577V42.5757ZM21.7312 33.6542C33.2256 33.6542 39.0225 47.3655 30.8859 55.3545C22.7492 63.3435 8.78446 57.6547 8.78446 46.3659C8.78446 39.3459 14.5819 33.6534 21.7319 33.6534L21.7312 33.6542Z" fill="#333366"/>
</svg>
