<svg width="53" height="67" viewBox="0 0 53 67" fill="none" xmlns="http://www.w3.org/2000/svg">
<path d="M26.3314 28.7033C34.2573 28.7033 40.6842 22.2763 40.6842 14.3506C40.6842 6.42761 34.2572 0 26.3314 0C18.4057 0 11.9786 6.42702 11.9786 14.3528C11.9786 22.2785 18.4057 28.7033 26.3314 28.7033ZM18.0093 12.1561C18.7732 9.2556 21.0361 6.93518 23.9136 6.08804C25.137 5.73768 26.4091 6.42691 26.7652 7.64741C27.1213 8.86214 26.4264 10.1401 25.2059 10.4991C23.8648 10.8925 22.8079 11.9752 22.4518 13.3249C22.1819 14.3559 21.2514 15.0365 20.232 15.0365C20.0367 15.0365 19.8385 15.0106 19.6433 14.9618C18.417 14.6402 17.6848 13.3795 18.0093 12.1561Z" fill="#333366"/>
<path d="M50.3648 62.0302H46.5454V56.0167C46.5454 53.4781 44.4892 51.4219 41.9506 51.4219H31.2935V32.6176C29.7083 33.0484 28.0484 33.3011 26.3311 33.3011C24.6138 33.3011 22.9538 33.0513 21.3687 32.6176V51.4219H10.7146C8.17593 51.4219 6.11972 53.4781 6.11972 56.0167V62.0302H2.29741C1.02807 62.0302 0 63.0582 0 64.3276C0 65.5969 1.02807 66.625 2.29741 66.625H50.3652C51.6345 66.625 52.6626 65.5969 52.6626 64.3276C52.6626 63.0582 51.6342 62.0302 50.3648 62.0302Z" fill="#333366"/>
</svg>
