<svg width="43" height="50" viewBox="0 0 43 50" fill="none" xmlns="http://www.w3.org/2000/svg">
<path d="M4.28829 0.54126C1.91905 0.54126 0 2.46036 0 4.82955V39.1239C0 41.4931 1.9191 43.4122 4.28829 43.4122H15.005C17.3722 43.4122 19.2913 41.4931 19.2913 39.1239V4.82955C19.2913 2.46031 17.3722 0.54126 15.005 0.54126H4.28829Z" fill="#333366"/>
<path d="M27.866 0.54126C25.4988 0.54126 23.5797 2.46036 23.5797 4.82955V39.1239C23.5797 41.4931 25.4988 43.4122 27.866 43.4122H38.5827C40.952 43.4122 42.871 41.4931 42.871 39.1239V4.82955C42.871 2.46031 40.9519 0.54126 38.5827 0.54126H27.866Z" fill="#333366"/>
</svg>
