<svg width="33" height="33" viewBox="0 0 33 33" fill="none" xmlns="http://www.w3.org/2000/svg">
<path fill-rule="evenodd" clip-rule="evenodd" d="M1.14783 1.51125H13.5659L12.7374 2.94595H2.0087C1.85648 2.94595 1.71051 3.00642 1.60288 3.11404C1.49525 3.22166 1.43478 3.36763 1.43478 3.51983V21.8939C1.43478 22.0461 1.49525 22.1921 1.60288 22.2997C1.71051 22.4073 1.85648 22.4678 2.0087 22.4678H30.9913C31.1435 22.4678 31.2895 22.4073 31.3971 22.2997C31.5048 22.1921 31.5652 22.0461 31.5652 21.8939V3.51983C31.5652 3.36763 31.5048 3.22166 31.3971 3.11404C31.2895 3.00642 31.1435 2.94595 30.9913 2.94595H20.2624L19.4341 1.51125H31.8522C32.1563 1.51214 32.4478 1.63335 32.6628 1.84841C32.8779 2.06346 32.9991 2.35488 33 2.65901V23.9292C32.9991 24.2333 32.8779 24.5247 32.6628 24.7398C32.4478 24.9548 32.1563 25.076 31.8522 25.0769H1.14783C0.843677 25.076 0.55224 24.9548 0.337173 24.7398C0.122107 24.5247 0.000889523 24.2333 0 23.9292V2.65901C0.000870695 2.35488 0.122082 2.06344 0.337152 1.84839C0.552223 1.63333 0.843671 1.51212 1.14783 1.51125ZM16.0854 10.9304C16.1807 11.4288 16.8041 11.4423 16.9119 10.9429C16.9693 10.6769 17.7529 6.86757 17.7529 5.76112C17.7537 5.58605 17.7194 5.4126 17.6519 5.25104C17.5845 5.08947 17.4853 4.94308 17.3603 4.82053C16.5573 4.03575 15.247 4.63589 15.247 5.76112C15.247 6.8581 16.0024 10.5301 16.0854 10.9304ZM16.5 13.0193C16.2935 13.0193 16.0917 13.0805 15.9201 13.1951C15.7484 13.3098 15.6146 13.4728 15.5356 13.6636C15.4566 13.8543 15.4359 14.0642 15.4762 14.2666C15.5164 14.4691 15.6159 14.6551 15.7618 14.8011C15.9078 14.947 16.0938 15.0464 16.2963 15.0867C16.4988 15.127 16.7087 15.1063 16.8994 15.0273C17.0901 14.9483 17.2532 14.8145 17.3678 14.6428C17.4825 14.4712 17.5437 14.2694 17.5437 14.0629C17.5437 13.7862 17.4337 13.5207 17.238 13.325C17.0423 13.1293 16.7768 13.0193 16.5 13.0193ZM17.606 0.640389C17.4943 0.44578 17.3332 0.284091 17.139 0.17165C16.9448 0.0592099 16.7244 0 16.5 0C16.2756 0 16.0552 0.0592099 15.861 0.17165C15.6668 0.284091 15.5057 0.44578 15.394 0.640389L7.00669 15.1667C6.89405 15.3608 6.8346 15.5811 6.83434 15.8054C6.83409 16.0298 6.89303 16.2502 7.00522 16.4445C7.11742 16.6388 7.27889 16.8001 7.47334 16.912C7.66778 17.024 7.88832 17.0826 8.11269 17.0821H24.8873C25.1117 17.0826 25.3322 17.024 25.5267 16.912C25.7211 16.8001 25.8826 16.6388 25.9948 16.4445C26.107 16.2502 26.1659 16.0298 26.1657 15.8054C26.1654 15.5811 26.1059 15.3608 25.9933 15.1667L17.606 0.640389ZM16.5 12.4454C16.071 12.4455 15.6596 12.6159 15.3562 12.9193C15.0529 13.2226 14.8824 13.634 14.8824 14.0629C14.8824 15.4987 16.6268 16.2237 17.6437 15.2067C18.6607 14.1897 17.9358 12.4454 16.5 12.4454ZM15.5231 11.038C15.5578 11.2216 15.6393 11.3933 15.7598 11.5362C16.2775 12.145 17.2328 11.9236 17.4556 11.1314L17.8231 9.28166C17.9809 8.43856 18.3274 6.55394 18.3274 5.76105C18.3288 5.39107 18.2205 5.02897 18.0162 4.72049C17.8119 4.41201 17.5208 4.17096 17.1796 4.02779C15.9721 3.52866 14.6737 4.4582 14.6737 5.76105C14.6737 6.84425 15.3337 10.1203 15.5236 11.0379L15.5231 11.038ZM7.83391 29.6044H25.1661C25.766 29.6062 26.3408 29.8452 26.7649 30.2694C27.1891 30.6936 27.4282 31.2683 27.43 31.8682V33H5.57011V31.8682C5.57187 31.2683 5.81094 30.6936 6.2351 30.2694C6.65927 29.8453 7.23405 29.6062 7.83391 29.6044ZM22.2704 29.0305V25.6508H10.7295V29.0305H22.2704ZM2.0087 3.51983V21.8939H30.9913V3.51983H20.5938L26.9873 14.593C27.2004 14.9616 27.3126 15.3797 27.3127 15.8054C27.3129 16.2312 27.2009 16.6494 26.988 17.0181C26.7751 17.3868 26.4689 17.6929 26.1001 17.9056C25.7314 18.1184 25.3131 18.2302 24.8873 18.23H8.11269C7.68694 18.2303 7.26862 18.1184 6.89984 17.9057C6.53106 17.6929 6.22482 17.3868 6.01194 17.0181C5.79906 16.6494 5.68706 16.2312 5.6872 15.8055C5.68734 15.3797 5.79962 14.9615 6.01274 14.593L12.4062 3.51983H2.0087Z" fill="#ffffff"/>
</svg>
