<svg width="38" height="33" viewBox="0 0 38 33" fill="none" xmlns="http://www.w3.org/2000/svg">
<path fill-rule="evenodd" clip-rule="evenodd" d="M22.5185 32.9982V22.6465C22.5185 22.1034 22.0752 21.6589 21.5336 21.6589H16.4657C15.9241 21.6589 15.4808 22.1034 15.4808 22.6465V32.9982H5.73554C4.32461 32.9982 3.16723 31.8377 3.16723 30.4229V17.2848H0.721369C0.0348709 17.2848 -0.23594 16.4355 0.238387 16.0187L18.0802 0.334673C18.5873 -0.111558 19.4152 -0.111558 19.9223 0.334673L37.7624 16.0187C38.235 16.4355 37.9659 17.2848 37.2794 17.2848H34.8353V30.4246C34.8353 31.8412 33.6779 33 32.2669 33L22.5185 32.9982Z" fill="#ffffff"/>
</svg>
