<svg width="31" height="33" viewBox="0 0 31 33" fill="none" xmlns="http://www.w3.org/2000/svg">
<path d="M29.8 1.1H26.4C26.5 0.5 26 0 25.3 0H19.7C19.1 0 18.6 0.5 18.6 1.1V15.7H17.5C16.9 15.7 16.4 16.2 16.4 16.8C16.4 17.4 16.9 17.9 17.5 17.9H22C22.6 17.9 23.1 17.4 23.1 16.8C23.1 16.2 22.6 15.7 22 15.7H20.9V9H24.3C24.3 9.6 24.8 10.1 25.4 10.1H29.9C30.5 10.1 31 9.6 31 9V2.2C31 1.6 30.5 1.1 29.9 1.1H29.8Z" fill="#333366"/>
<path d="M1.1 32.5H24C25.1 32.5 26.2 32.2 27 31.5C28.1 30.5 28.7 29.2 28.6 27.7C28.4 25.4 26.2 23.5 24 23.5H5.2C4.5 23.5 3.8 23.2 3.2 22.7C2.6 22.1 2.3 21.3 2.4 20.4C2.6 19 3.9 17.9 5.3 17.9H14.1C14.7 17.9 15.2 17.4 15.2 16.8C15.2 16.2 14.7 15.7 14.1 15.7H5.4C2.7 15.7 0.1 17.9 0.2 20.7C0.2 22.1 0.7 23.3 1.7 24.2C2.6 25.2 3.9 25.7 5.3 25.7H24.2C25.5 25.7 26.7 26.8 26.6 28.1C26.6 28.6 26.3 29.2 25.9 29.6C25.5 30 24.9 30.3 24.3 30.3H1.1C0.5 30.3 0 30.8 0 31.4C0 32 0.5 32.5 1.1 32.5Z" fill="#333366"/>
</svg>
