<svg width="35" height="35" viewBox="0 0 35 35" fill="none" xmlns="http://www.w3.org/2000/svg">
<path d="M6.88334 2.79999C5.01668 2.79999 3.46112 4.31665 3.46112 6.22221C3.46112 8.08888 4.97779 9.64443 6.88334 9.64443C8.75001 9.64443 10.3056 8.12777 10.3056 6.22221C10.3056 4.31665 8.75001 2.79999 6.88334 2.79999ZM6.88334 8.43888C5.6389 8.43888 4.62779 7.42777 4.62779 6.18332C4.62779 4.93888 5.6389 3.92777 6.88334 3.92777C8.12779 3.92777 9.1389 4.93888 9.1389 6.18332C9.1389 7.42777 8.12779 8.43888 6.88334 8.43888Z" fill="#333366"/>
<path d="M17.3833 2.79999C15.5167 2.79999 13.9611 4.31665 13.9611 6.22221C13.9611 8.08888 15.4778 9.64443 17.3833 9.64443C19.25 9.64443 20.8056 8.12777 20.8056 6.22221C20.8056 4.31665 19.25 2.79999 17.3833 2.79999ZM17.3833 8.43888C16.1389 8.43888 15.1278 7.42777 15.1278 6.18332C15.1278 4.93888 16.1389 3.92777 17.3833 3.92777C18.6278 3.92777 19.6389 4.93888 19.6389 6.18332C19.6389 7.42777 18.6278 8.43888 17.3833 8.43888Z" fill="#333366"/>
<path d="M31.3056 6.22221C31.3056 4.35554 29.7889 2.79999 27.8833 2.79999C26.0167 2.79999 24.4611 4.31665 24.4611 6.22221C24.4611 8.08888 25.9778 9.64443 27.8833 9.64443C29.7889 9.60554 31.3056 8.08888 31.3056 6.22221ZM27.8833 8.43888C26.6389 8.43888 25.6278 7.42777 25.6278 6.18332C25.6278 4.93888 26.6389 3.92777 27.8833 3.92777C29.1278 3.92777 30.1389 4.93888 30.1389 6.18332C30.1389 7.42777 29.1278 8.43888 27.8833 8.43888Z" fill="#333366"/>
<path d="M11.8293 20.9318L12.5985 21.1212L11.8293 16.9545L10.8677 14.4924L10.6754 12.9773L10.2908 10.7045L10.6754 9.75758L11.2524 9H12.5985H13.3677L14.137 10.5152L15.2908 13.9242L16.4447 13.5455H17.4062H18.7524L19.5216 14.303L20.0985 13.5455H21.4447L22.5985 14.303L23.5601 15.25L23.9447 14.8712L25.6754 14.303L26.637 14.4924L27.2139 15.4394L29.7139 26.2348V26.9924V28.5L28.7139 30.5L27.2139 32L23.9447 33.2424L20.6754 34H17.4062L15.0985 33.2424L11.8293 30.4015L10.2908 27.1818L9.7139 24.3409V22.0682L10.0985 21.1212L11.8293 20.9318Z" fill="#333366"/>
<path d="M34.7278 6.22222C34.7278 2.8 31.9278 0 28.5056 0H6.22222C2.8 0 0 2.8 0 6.22222C0 9.64444 2.8 12.4444 6.22222 12.4444H10.0333L11.8222 20.4944C11.5111 20.4556 11.2 20.4556 10.85 20.5333C10.3444 20.65 9.91667 20.9611 9.64444 21.3889C8.82778 22.7111 9.21667 25.0833 9.68333 27.0278L9.72222 27.2611C9.72222 27.3 9.76111 27.3778 9.76111 27.4167C11.1222 32.3556 14.3889 35 19.0167 35C19.9889 35 21.0389 34.8833 22.1278 34.65C25.4333 33.9111 27.7667 32.55 29.1278 30.5667C30.2944 28.8556 30.6444 26.6778 30.1389 24.3444L28.1944 15.5556C27.8833 14.1944 26.5222 13.3 25.1611 13.6111C24.6556 13.7278 24.1889 14 23.8778 14.35C23.6833 13.8444 23.3333 13.4167 22.8667 13.1444C22.2833 12.7944 21.6222 12.6778 20.9222 12.7944C20.3 12.9111 19.8333 13.2222 19.4833 13.5722C18.9 12.7556 17.8889 12.3278 16.8389 12.5611C16.3333 12.6778 15.8667 12.95 15.5167 13.3L15.3222 12.4056H28.5833C31.9667 12.4056 34.7278 9.60556 34.7278 6.22222ZM15.6333 19.2889C15.6722 19.4444 15.75 19.5611 15.9056 19.6778C16.0222 19.7556 16.1389 19.8333 16.2944 19.8333C16.3333 19.8333 16.3722 19.8333 16.4111 19.8333C16.7222 19.7556 16.9167 19.4444 16.8389 19.1333L15.9833 15.3611C15.9056 15.0111 15.9833 14.6222 16.1778 14.3111C16.3722 14 16.6833 13.7667 17.0333 13.6889C17.7722 13.5333 18.5111 14 18.7056 14.7389L18.9389 15.8278L19.5222 18.4722C19.6 18.7833 19.9111 18.9778 20.2222 18.9C20.5333 18.8222 20.7278 18.5111 20.65 18.2L20.1056 15.5556C19.9889 15.0889 20.0278 14.7 20.2611 14.4278C20.4944 14.1167 20.8833 13.9611 21.1944 13.9222C21.5444 13.8444 21.9333 13.9222 22.2444 14.1167C22.5556 14.3111 22.7889 14.6222 22.8667 14.9722L23.4111 17.3444C23.4889 17.6556 23.8 17.85 24.1111 17.7722C24.4222 17.6944 24.6167 17.3833 24.5389 17.0722L24.3833 16.3722C24.2278 15.5944 24.6556 14.8944 25.4333 14.7C26.1722 14.5444 26.9111 15.0111 27.1056 15.75L29.05 24.5389C29.5167 26.5611 29.2056 28.3889 28.2333 29.8667C27.0667 31.5778 24.9278 32.7833 21.9333 33.4444C16.2556 34.7278 12.3667 32.3944 10.9667 26.9111C10.9667 26.8722 10.9278 26.8333 10.9278 26.7944L10.8889 26.7167C10.6944 25.8222 10.0333 23.0222 10.6944 21.9722C10.8111 21.7778 10.9667 21.6611 11.1611 21.6222C11.3944 21.5833 11.7444 21.5444 11.9778 21.6611C12.1722 21.8167 12.25 22.0889 12.2889 22.2833L12.7167 24.5C12.7944 24.7722 13.0278 24.9667 13.3 24.9667C13.3389 24.9667 13.3778 24.9667 13.4167 24.9667C13.7278 24.8889 13.9222 24.5778 13.8444 24.2667L11.2 12.4444L10.9278 11.2778L10.8111 10.7333C10.7333 10.3833 10.8111 9.99444 11.0056 9.68333C11.2 9.37222 11.5111 9.13889 11.8611 9.06111C12.6 8.90556 13.3389 9.37222 13.5333 10.1111L13.8056 11.2778L14.0778 12.4444L15.6333 19.2889ZM15.0111 11.2389L14.7 9.83889C14.3889 8.47778 13.0278 7.58333 11.6667 7.89444C11.0056 8.05 10.4222 8.43889 10.0722 9.02222C9.72222 9.60556 9.56667 10.2667 9.72222 10.9667L9.8 11.2778H6.26111C3.5 11.2778 1.20556 9.02222 1.20556 6.22222C1.20556 3.42222 3.46111 1.16667 6.26111 1.16667H28.5833C31.3444 1.16667 33.6389 3.42222 33.6389 6.22222C33.6389 9.02222 31.3833 11.2778 28.5833 11.2778H15.0111V11.2389Z" fill="#333366"/>
</svg>
