<svg width="33" height="33" viewBox="0 0 33 33" fill="none" xmlns="http://www.w3.org/2000/svg">
<path d="M18.4074 19.866L19.866 18.4206C20.0574 18.2292 20.1168 17.9454 20.0112 17.7012L19.008 15.2394C19.2324 14.8104 19.4172 14.355 19.569 13.8798L22.011 12.8502C22.2618 12.7512 22.4202 12.507 22.4202 12.243V10.1838C22.4202 9.91317 22.2618 9.67558 22.011 9.57L19.569 8.54697C19.4172 8.07839 19.2324 7.6296 19.008 7.19398L20.0112 4.73879C20.1168 4.4946 20.0574 4.2108 19.866 4.01938L18.4074 2.5608C18.216 2.36938 17.9388 2.31657 17.688 2.41558L15.2262 3.4188C14.8038 3.20098 14.355 3.0096 13.8864 2.86438L12.8502 0.415803C12.7446 0.171566 12.507 0.0131726 12.243 0.00656616L10.1904 0C9.93303 0.00656614 9.68223 0.151787 9.57661 0.40259L8.53384 2.86438C8.07183 3.0096 7.62303 3.20098 7.19402 3.4188L4.72562 2.41558C4.48143 2.31657 4.19763 2.36938 4.01281 2.5608L2.54763 4.01938C2.36281 4.2108 2.30343 4.4946 2.40902 4.73879L3.41223 7.19398C3.18121 7.6296 2.99643 8.07839 2.8512 8.54697L0.402631 9.57C0.158434 9.67558 0 9.91317 0 10.1838V12.243C0 12.507 0.158434 12.7512 0.402631 12.8502L2.8512 13.8798C3.00303 14.355 3.18781 14.8104 3.41223 15.2328L2.40241 17.7012C2.30343 17.9454 2.36281 18.2292 2.55424 18.4206L4.01281 19.866C4.20424 20.0574 4.48803 20.1102 4.73223 20.0112L7.1808 19.008C7.62303 19.239 8.07843 19.4304 8.53384 19.5756L9.57 22.0242C9.67562 22.2684 9.91321 22.4268 10.1772 22.4268H12.2364C12.5004 22.4268 12.738 22.2684 12.8436 22.0242L13.8666 19.5756C14.3352 19.4304 14.7906 19.239 15.2328 19.008L17.688 20.0112C17.9322 20.1102 18.216 20.0574 18.4074 19.866ZM14.2972 13.7628C13.5626 14.653 12.4513 15.2215 11.2096 15.2215C9.59449 15.2215 8.20323 14.2578 7.57143 12.8769C7.33984 12.3713 7.20723 11.8113 7.20723 11.22C7.20723 9.00898 9.00241 7.21379 11.2068 7.21379C13.4178 7.21379 15.213 9.00898 15.213 11.22C15.213 12.1847 14.8692 13.071 14.2972 13.7628Z" fill="#ffffff"/>
<path d="M32.2608 23.892C32.4588 23.7138 32.5314 23.4366 32.439 23.1858L31.9638 21.8394C31.878 21.5886 31.647 21.417 31.383 21.4038L29.6274 21.2982C29.4426 21.0672 29.2446 20.8494 29.04 20.6514L29.1192 18.9024C29.1324 18.6384 28.9872 18.3942 28.7496 18.2754L27.4692 17.6484C27.225 17.5362 26.9346 17.5692 26.7366 17.7474L25.4232 18.9222C25.1328 18.8892 24.8424 18.876 24.552 18.876L23.3772 17.5824C23.199 17.3844 22.9218 17.3184 22.671 17.4042L21.318 17.8794C21.0672 17.9718 20.8956 18.2028 20.8758 18.4668L20.7768 20.2158C20.5524 20.394 20.3346 20.5854 20.13 20.7966L18.3744 20.7108C18.1104 20.6844 17.8596 20.8494 17.7474 21.087L17.1336 22.3872C17.0214 22.6248 17.061 22.9086 17.2392 23.1066L18.4008 24.42C18.3678 24.7104 18.3546 24.9942 18.3612 25.2846L17.0676 26.466C16.8696 26.6442 16.797 26.9214 16.8828 27.1656L17.358 28.5186C17.4438 28.7694 17.6748 28.9476 17.9388 28.9608L19.7076 29.0664C19.8792 29.2908 20.0706 29.502 20.2752 29.7L20.1894 31.4622C20.1762 31.7262 20.328 31.977 20.5656 32.0892L21.8658 32.7096C22.1034 32.8218 22.3938 32.7822 22.5918 32.604L23.8986 31.4358C24.189 31.4688 24.4794 31.4886 24.7632 31.482L25.9446 32.7822C26.07 32.9208 26.2482 33 26.433 33C26.5056 33 26.5782 32.9868 26.6508 32.9604L28.0038 32.4852C28.2546 32.3928 28.4262 32.1618 28.446 31.8978L28.545 30.1488C28.776 29.964 28.9872 29.7726 29.1852 29.5614L30.9474 29.6472C31.218 29.667 31.4556 29.5086 31.5744 29.271L32.1882 27.9774C32.3004 27.7398 32.2608 27.456 32.0826 27.258L30.9144 25.9446C30.954 25.6608 30.9672 25.3704 30.9606 25.08L32.2608 23.892ZM27.357 26.466C27.2654 26.6579 27.1525 26.8347 27.0257 26.9994C26.6784 27.4529 26.21 27.7985 25.6594 27.9916C25.3374 28.1056 25.0006 28.1643 24.6603 28.1643C23.9762 28.1643 23.335 27.922 22.8199 27.5153C22.3858 27.1741 22.0391 26.7185 21.846 26.1756C21.582 25.4232 21.6216 24.6114 21.9648 23.892C21.9996 23.8205 22.0476 23.7593 22.0872 23.6914C22.443 23.075 22.9901 22.6031 23.6694 22.3654C23.9878 22.252 24.3239 22.1934 24.6642 22.1934C25.7699 22.1934 26.7723 22.8072 27.2849 23.7595C27.3588 23.896 27.4229 24.0393 27.4758 24.189C27.7398 24.9348 27.7002 25.7466 27.357 26.466Z" fill="#ffffff"/>
</svg>
