<svg width="10" height="16" viewBox="0 0 10 16" fill="none" xmlns="http://www.w3.org/2000/svg">
<path d="M9.99999 1.90456C10.0014 1.52874 9.88939 1.16098 9.6783 0.847903C9.46721 0.534828 9.1665 0.290532 8.81428 0.145985C8.46206 0.00143705 8.0742 -0.0368521 7.69986 0.0359686C7.32552 0.108789 6.98156 0.289442 6.71159 0.555026L0.564669 6.6161C0.38483 6.79319 0.242431 7.00365 0.145711 7.23529C0.04899 7.46693 -0.000131836 7.71517 0.00118612 7.96563C0.00118612 7.98756 0.00118612 8.00781 0.00118611 8.02805C-0.00808172 8.28745 0.0370175 8.54595 0.13367 8.78743C0.230323 9.0289 0.376456 9.24817 0.562955 9.43156L6.7133 15.4775C7.07761 15.8187 7.5629 16.0061 8.06559 15.9998C8.56829 15.9935 9.04858 15.794 9.40395 15.4437C9.75933 15.0935 9.96165 14.6203 9.96773 14.1252C9.97381 13.6301 9.78318 13.1522 9.43651 12.7936L4.58954 8.01962L9.43651 3.24565C9.61532 3.06957 9.75713 2.86048 9.85382 2.63036C9.95051 2.40024 10.0002 2.1536 9.99999 1.90456Z" fill="#333366"/>
</svg>
