<svg width="23" height="23" viewBox="0 0 23 23" fill="none" xmlns="http://www.w3.org/2000/svg">
<circle cx="12" cy="12" r="10" fill="white"/>
<path d="M11.5 0C5.13667 0 0 5.13667 0 11.5C0 17.8633 5.13667 23 11.5 23C17.8633 23 23 17.8633 23 11.5C23 5.13667 17.8633 0 11.5 0ZM17.4544 15.87C17.94 16.3556 17.9144 17.1478 17.4289 17.6333C17.1989 17.8633 16.8667 17.9911 16.56 17.9911C16.2278 17.9911 15.8956 17.8633 15.6656 17.6078L11.5 13.2889L7.33444 17.6078C7.07889 17.8633 6.77222 17.9911 6.44 17.9911C6.13333 17.9911 5.82667 17.8633 5.57111 17.6333C5.08556 17.1478 5.06 16.3556 5.54556 15.87L9.76222 11.5L5.54556 7.13C5.06 6.64444 5.08556 5.85222 5.57111 5.36667C6.05667 4.88111 6.84889 4.90667 7.33444 5.39222L11.5 9.71111L15.6656 5.41778C16.1511 4.93222 16.9433 4.90667 17.4289 5.39222C17.9144 5.87778 17.94 6.67 17.4544 7.15556L13.2378 11.5L17.4544 15.87Z" fill="#AE0101"/>
</svg>
