<svg width="17" height="27" viewBox="0 0 17 27" fill="none" xmlns="http://www.w3.org/2000/svg">
<path d="M0.500022 23.7879L0.500021 23.7857C0.499751 23.4327 0.570651 23.0829 0.708961 22.7562C0.847283 22.4294 1.05047 22.1317 1.30745 21.8805L1.30748 21.8805L9.54733 13.8244L9.91301 13.4669L9.54733 13.1094L1.31205 5.05778C0.816595 4.54684 0.546163 3.86949 0.55482 3.16995C0.5635 2.46846 0.852192 1.79578 1.36294 1.29611C1.87404 0.796094 2.56707 0.509275 3.29471 0.500221C4.02041 0.491191 4.71903 0.759212 5.2427 1.24404L15.6937 11.442C15.9616 11.7035 16.1709 12.0155 16.309 12.3582C16.4472 12.7008 16.5115 13.0673 16.4983 13.4347L16.498 13.4437V13.4527V13.4529V13.4531V13.4533V13.4535V13.4537V13.4539V13.4541V13.4543V13.4545V13.4547V13.4549V13.4551V13.4553V13.4555V13.4557V13.4559V13.4561V13.4563V13.4565V13.4567V13.4569V13.4571V13.4573V13.4575V13.4577V13.4579V13.4581V13.4583V13.4585V13.4587V13.4589V13.4591V13.4593V13.4595V13.4597V13.4599V13.4601V13.4603V13.4605V13.4607V13.4609V13.4611V13.4613V13.4615V13.4617V13.4619V13.4621V13.4623V13.4625V13.4627V13.4629V13.4631V13.4633V13.4635V13.4637V13.4639V13.4641V13.4643V13.4645V13.4647V13.4649V13.4651V13.4653V13.4655V13.4657V13.4659V13.4661V13.4663V13.4665V13.4667V13.4669V13.4671V13.4673V13.4675V13.4677V13.4679V13.4681V13.4683V13.4685V13.4687V13.4689V13.4691V13.4693V13.4695V13.4697V13.4699V13.4701V13.4703V13.4705V13.4707V13.4709V13.4711V13.4713V13.4715V13.4717V13.4719V13.4721V13.4723V13.4725V13.4727V13.4729V13.4731V13.4733V13.4735V13.4737V13.4739V13.4741V13.4743V13.4745V13.4747V13.4749V13.4751V13.4753V13.4755V13.4757V13.4759V13.4761V13.4763V13.4765V13.4767V13.4769V13.4771V13.4773V13.4775V13.4777V13.4779V13.4781V13.4783V13.4785V13.4787V13.4789V13.4791V13.4793V13.4795V13.4797V13.4799V13.4801V13.4803V13.4805V13.4807V13.4809V13.4811V13.4813V13.4816V13.4818V13.482V13.4822V13.4824V13.4826V13.4828V13.483V13.4832V13.4834V13.4836V13.4838V13.484V13.4842V13.4844V13.4846V13.4848V13.485V13.4852V13.4854V13.4856V13.4858V13.486V13.4862V13.4864V13.4866V13.4868V13.487V13.4872V13.4874V13.4876V13.4878V13.488V13.4882V13.4884V13.4886V13.4888V13.489V13.4892V13.4894V13.4896V13.4898V13.49V13.4902V13.4904V13.4906V13.4908V13.491V13.4912V13.4914V13.4916V13.4919V13.4921V13.4923V13.4925V13.4927V13.4929V13.4931V13.4933V13.4935V13.4937V13.4939V13.4941V13.4943V13.4945V13.4947V13.4949V13.4951V13.4953V13.4955V13.4957V13.4959V13.4961V13.4963V13.4965V13.4967V13.4969V13.4971V13.4973V13.4975V13.4977V13.4979V13.4981V13.4983V13.4986V13.4988V13.499V13.4992V13.4994V13.4996V13.4998V13.5V13.5002V13.5004V13.5006V13.5008V13.501V13.5012V13.5014V13.5016V13.5018V13.502V13.5022V13.5024V13.5026V13.5028V13.503V13.5032V13.5034V13.5036V13.5039V13.5041V13.5043V13.5045V13.5047V13.5049V13.5051V13.5053V13.5055V13.5057V13.5059V13.5061V13.5063V13.5065V13.5067V13.5069V13.5071V13.5073V13.5075V13.5077V13.5079V13.5081V13.5084V13.5086V13.5088V13.509V13.5092V13.5094V13.5096V13.5098V13.51V13.5102V13.5104V13.5106V13.5108V13.511V13.5112V13.5114V13.5116V13.5118V13.512V13.5123V13.5125V13.5127V13.5129V13.5131V13.5133V13.5135V13.5137V13.5139V13.5141V13.5143V13.5145V13.5147V13.5149V13.5151V13.5153V13.5156V13.5158V13.516V13.5162V13.5164V13.5166V13.5168V13.517V13.5172V13.5174V13.5176V13.5178V13.518V13.5182V13.5184V13.5187V13.5189V13.5191V13.5193V13.5195V13.5197V13.5199V13.5201V13.5203V13.5205V13.5207V13.5209V13.5211V13.5213V13.5216V13.5218V13.522V13.5222V13.5224V13.5226V13.5228V13.523V13.5232V13.5234V13.5236V13.5238V13.524V13.5243V13.5245V13.5247V13.5249V13.5251V13.5253V13.5255V13.5257V13.5259V13.5261V13.5263V13.5265V13.5268V13.527V13.5272V13.5274V13.5276V13.5278V13.528V13.5282V13.5284V13.5286V13.5288V13.5291V13.5293V13.5295V13.5297V13.5299V13.5301V13.5303V13.5305V13.5307V13.5309V13.5311V13.5314V13.5316V13.5318V13.532V13.5322V13.5324V13.5326V13.5328V13.533V13.5332V13.5335V13.5337V13.5339V13.5341V13.5343V13.5345V13.5347V13.5349V13.5351V13.5353V13.5356V13.5358V13.536V13.5362V13.5364V13.5366V13.5368V13.537V13.5372V13.5375V13.5377V13.5379V13.5381V13.5383V13.5385V13.5387V13.5389V13.5391V13.5394V13.5396V13.5398V13.54V13.5402V13.5404V13.5406V13.5408V13.5411V13.5413V13.5415V13.5417V13.5419V13.5421V13.5423V13.5425V13.5428V13.543V13.5432V13.5434V13.5436V13.5438V13.544V13.5442V13.5445V13.5447V13.5449V13.5451V13.5453V13.5455V13.5457V13.5459V13.5462V13.5464V13.5466V13.5468V13.547V13.5472V13.5474V13.5477V13.5479V13.5481V13.5483V13.5485V13.5487V13.5489V13.5492V13.5494V13.5496V13.5498V13.55V13.5502V13.5504V13.5507V13.5509V13.5511V13.5513V13.5515V13.5517V13.5519V13.5522V13.5524V13.5526V13.5528V13.553V13.5532V13.5535V13.5537V13.5539V13.5541V13.5543V13.5545V13.5547V13.555V13.5552V13.5554V13.5556V13.5558V13.556V13.5563V13.5565V13.5567V13.5569V13.5571V13.5573V13.5576V13.5578L16.498 13.558L16.498 13.5606C16.4999 13.9156 16.4298 14.2677 16.2914 14.5966C16.153 14.9255 15.949 15.2251 15.6906 15.4778L15.6903 15.478L5.24098 25.7057C4.85278 26.0847 4.35683 26.3438 3.81544 26.4484C3.274 26.5529 2.71312 26.4979 2.20436 26.2906C1.6957 26.0834 1.26323 25.7339 0.960499 25.2882C0.657863 24.8427 0.498072 24.3205 0.500022 23.7879ZM16.998 13.558V13.4527V13.558Z" fill="#333366" stroke="#D9D9D9"/>
</svg>
