<svg width="20" height="25" viewBox="0 0 20 25" fill="none" xmlns="http://www.w3.org/2000/svg">
<path d="M6.16059 7.50679C6.16059 4.72236 7.85372 2.77778 10.2779 2.77778C12.7021 2.77778 14.3951 4.72236 14.3951 7.50679V8.16651C14.3951 8.93357 15.0169 9.5554 15.7839 9.5554C16.551 9.5554 17.1728 8.93357 17.1728 8.16651V7.50679C17.1728 3.22727 14.2087 0 10.2779 0C6.34709 0 3.38281 3.22727 3.38281 7.50679V8.16651C3.38281 8.93357 4.00464 9.5554 4.7717 9.5554C5.53876 9.5554 6.16059 8.93357 6.16059 8.16651V7.50679Z" fill="#333366"/>
<path d="M16.3723 11.4611H4.18346C3.22139 11.4614 2.2988 11.8436 1.61852 12.5239C0.93823 13.2042 0.555931 14.1268 0.555664 15.0889V21.3722C0.555931 22.3343 0.93823 23.2569 1.61852 23.9371C2.2988 24.6174 3.22139 24.9997 4.18346 25H16.3723C17.3344 24.9997 18.257 24.6174 18.9373 23.9371C19.6175 23.2569 19.9998 22.3343 20.0001 21.3722V15.0889C19.9998 14.1268 19.6175 13.2042 18.9373 12.5239C18.257 11.8436 17.3344 11.4614 16.3723 11.4611ZM11.7557 18.1609C11.4643 18.4175 11.2251 18.7564 11.2251 19.1446V21.2639C11.2251 21.3883 11.2006 21.5114 11.153 21.6264C11.1054 21.7413 11.0356 21.8457 10.9477 21.9336C10.8597 22.0216 10.7553 22.0914 10.6404 22.139C10.5255 22.1866 10.4023 22.2111 10.2779 22.2111C10.1535 22.2111 10.0303 22.1866 9.91542 22.139C9.8005 22.0914 9.69608 22.0216 9.60813 21.9336C9.52017 21.8457 9.4504 21.7413 9.4028 21.6264C9.3552 21.5114 9.3307 21.3883 9.3307 21.2639V19.1446C9.3307 18.7564 9.09149 18.4175 8.80012 18.1609C8.58193 17.9688 8.40176 17.7346 8.27158 17.4701C8.04693 17.0136 7.98465 16.4942 8.09504 15.9976C8.20542 15.5009 8.48186 15.0568 8.87872 14.7384C9.27558 14.4201 9.76914 14.2466 10.2779 14.2466C10.7867 14.2466 11.2802 14.4201 11.6771 14.7384C12.0739 15.0568 12.3504 15.5009 12.4608 15.9976C12.5711 16.4942 12.5089 17.0136 12.2842 17.4701C12.154 17.7346 11.9739 17.9688 11.7557 18.1609Z" fill="#333366"/>
</svg>
