<svg width="23" height="23" viewBox="0 0 23 23" fill="none" xmlns="http://www.w3.org/2000/svg">
<path d="M11.5 0C5.13667 0 0 5.13667 0 11.5C0 17.8633 5.13667 23 11.5 23C17.8633 23 23 17.8633 23 11.5C23 5.13667 17.8633 0 11.5 0Z" fill="#FF7032"/>
<path d="M18.726 14.8331L13.2689 5.05615C12.9005 4.39459 12.2381 4 11.5012 4C10.7642 4 10.1019 4.39536 9.73341 5.05615L4.27635 14.8331C3.90788 15.4947 3.90788 16.283 4.27635 16.9439C4.64482 17.6054 5.30563 18 6.04411 18H16.9559C17.6944 18 18.3552 17.6046 18.7236 16.9439C19.0921 16.2823 19.0921 15.4939 18.7236 14.8331H18.726ZM17.5452 16.2381C17.4866 16.3429 17.3115 16.5886 16.9582 16.5886H6.04411C5.69162 16.5886 5.51577 16.3445 5.45714 16.2381C5.39852 16.1334 5.27976 15.853 5.45714 15.5388L10.9142 5.76182C11.0916 5.44521 11.3839 5.41134 11.5012 5.41134C11.6184 5.41134 11.9108 5.44599 12.0881 5.76182L17.5452 15.538C17.7226 15.8546 17.6038 16.1326 17.5452 16.2373V16.2381Z" fill="white"/>
<path d="M11.4468 8.22119C11.1236 8.22119 10.8606 8.48422 10.8606 8.80744V12.325C10.8606 12.6482 11.1236 12.9112 11.4468 12.9112C11.7701 12.9112 12.0331 12.6482 12.0331 12.325V8.80744C12.0331 8.48422 11.7701 8.22119 11.4468 8.22119Z" fill="white"/>
<path d="M12.0331 13.9995C12.0331 14.7807 10.8606 14.7807 10.8606 13.9995C10.8606 13.2176 12.0331 13.2176 12.0331 13.9995Z" fill="white"/>
</svg>
