<svg width="242" height="65" viewBox="0 0 242 65" fill="none" xmlns="http://www.w3.org/2000/svg">
<path d="M213.714 0.00852094C213.981 0.0438671 215.26 0.447823 215.441 0.604356C215.582 0.730592 215.587 1.01841 215.723 1.18504C215.874 1.37187 216.061 1.44256 216.207 1.67989C216.952 2.86651 216.227 4.20966 216.121 5.38618C215.935 7.5019 216.579 9.82464 216.373 12.0464C216.318 12.6523 215.99 12.8644 215.819 13.4299C215.391 14.8741 215.406 17.8634 215.512 19.4236C215.668 21.6858 216.584 24.7609 213.87 26.1142C212.556 26.7706 212.616 25.4729 212.163 24.7155C211.75 24.0237 211.03 23.4985 210.954 22.529C211.05 20.8122 211.543 18.9237 211.654 17.2423C211.765 15.5608 211.09 13.8793 210.823 12.2736C210.556 10.6679 210.647 9.13287 210.566 7.56754C210.425 4.7449 210.078 3.96729 211.589 1.33148C211.931 0.735641 212.5 0.28624 213.104 0.00852094C213.301 0.0236693 213.517 -0.0167263 213.709 0.00852094H213.714Z" fill="#333366"/>
<path d="M0.855225 50.4424L3.37325 50.4626L8.16253 59.1527L12.8158 50.4424H15.354V64.9545H13.0576V54.6738L8.65103 62.4247L7.39705 62.3944L3.15166 54.6738V64.9545H0.855225V50.4424Z" fill="#333366"/>
<path d="M221.771 34.0266C222.114 34.4558 221.61 35.1931 222.738 35.2941C223.635 35.3748 224.174 34.7083 224.858 34.4457C226.415 33.86 228.565 34.5619 229.774 35.6273C230.378 36.1626 231.083 38.9095 231.108 39.7426C231.128 40.293 230.73 41.1666 230.635 41.8078C230.539 42.4491 230.635 43.1409 230.594 43.7014C230.464 45.3778 226.53 46.4281 226.389 47.3622C226.279 48.1146 227.175 48.0893 227.366 48.3418C227.905 49.0588 227.215 50.0839 227.13 50.8766C226.888 53.1186 227.83 54.5678 227.719 56.6633C227.598 58.8952 226.188 61.0058 225.427 63.0761C224.843 63.6063 224.017 63.5861 223.327 63.8739C222.32 64.2981 222.31 64.9545 220.91 64.8131C219.888 64.7071 219.505 64.1112 218.745 63.7123C213.678 61.0765 206.769 62.9802 201.758 59.9151C199.739 58.6831 198.595 57.0471 196.979 55.3858C196.677 54.7142 197.165 53.4468 197.014 52.9368C196.878 52.4824 195.544 51.7048 195.201 51.119C194.929 50.6545 194.269 48.5387 194.622 48.1853C194.975 47.8318 196.863 48.0944 197.533 47.953C200.111 47.4228 204.08 40.697 204.478 38.2177C204.689 36.8947 204.155 37.1674 203.44 36.3393C202.458 35.1981 202.549 34.0367 203.057 32.6885C204.11 29.8962 205.46 28.9873 208.37 28.4571C209.629 28.2299 210.627 28.3965 211.835 28.2955C213.22 28.1794 215.094 27.3311 216.423 27.5785C216.811 27.6492 218.251 29.0176 218.745 29.366C219.893 30.1689 221.373 30.6031 222.285 31.6282C223.705 33.2187 221.414 33.1531 221.318 33.5621C221.288 33.8499 221.661 33.8903 221.766 34.0165L221.771 34.0266ZM221.565 34.3549C221.509 34.2791 221.127 34.2741 220.991 34.3094C219.324 34.7336 219.425 38.0965 217.667 38.6115C215.592 39.2225 210.501 37.531 210.103 40.8383C209.896 42.54 210.888 48.4782 211.538 50.1394C211.921 51.114 212.535 52.3006 213.683 52.4672C215.738 52.7651 218.206 49.3063 219.571 48.0136C219.933 47.6702 220.361 47.5036 220.724 47.1148C222.748 44.9284 221.026 42.2774 220.538 39.9193C220.17 38.152 220.447 38.6519 221.152 37.3795C221.278 37.1523 221.892 35.7586 221.912 35.597C221.983 35.0921 221.484 35.289 221.439 35.1274C221.379 34.9052 221.61 34.4054 221.57 34.3549H221.565Z" fill="#333366"/>
<path d="M39.9954 25.4072H49.4179V13.435H57.7525V45.4838H49.4179V32.5421H39.9954V45.4838H31.5399V13.43H39.8141C39.8141 13.43 39.9954 13.5966 39.9954 13.6117V25.4022V25.4072Z" fill="#333366"/>
<path d="M86.5033 13.43H100.221C102.367 13.6168 104.417 14.0359 106.184 15.3134C111.301 19.0146 111.537 28.6086 105.55 31.5928C104.87 31.9311 103.923 32.0826 103.324 32.3906C103.213 32.4512 103.127 32.3603 103.173 32.5977L112.958 45.4788H102.75L94.8379 33.3854V45.4788H86.5033V13.43ZM94.843 27.8259H97.1999C97.4416 27.8259 98.5697 27.5381 98.8668 27.4371C102.221 26.2909 102.362 21.6656 99.0733 20.3881C98.8215 20.2922 97.7589 19.9639 97.5625 19.9639H94.843V27.8259Z" fill="#333366"/>
<path d="M137.362 45.4839L149.499 13.5512L158.448 13.4249L170.585 45.4839H161.827L159.657 40.1516L148.316 40.1819L145.999 45.4839H137.362ZM157.537 33.7489L153.916 23.5895L150.532 33.7489H157.537Z" fill="#333366"/>
<path d="M23.2052 15.2478V22.1403C22.4649 21.8222 21.7901 21.393 21.0246 21.1153C18.5116 20.2013 12.6849 19.1157 10.9475 21.7818C9.62803 23.8066 12.0856 24.8317 13.5662 25.3164C19.0152 27.0888 26.0355 27.5937 25.7434 35.2689C25.2851 47.2613 8.75176 47.4279 0.971069 42.8834V35.2032C4.38551 36.8897 10.746 40.2022 14.4626 38.248C15.8022 37.5462 16.5727 36.0616 15.6914 34.6781C14.6691 33.0774 9.86473 32.3351 7.98125 31.7544C3.03585 30.2295 0.356672 27.9724 1.11208 22.3372C2.4567 12.2989 15.9684 12.1777 23.2052 15.2478Z" fill="#333366"/>
<path d="M123.473 34.9608V45.4838H115.138V13.43H129.098C134.24 13.5814 138.621 16.7323 139.387 21.9888C139.84 25.0942 139.382 28.9873 137.307 31.4514C133.721 35.7182 128.489 34.9002 123.473 34.9558V34.9608ZM123.473 28.1895H127.159C128.408 28.1895 130.105 27.2402 130.538 26.0081C131.43 23.4834 130.201 20.2063 127.159 20.2063H123.473V28.1895Z" fill="#333366"/>
<path d="M81.311 20.5699H71.4051V25.892H80.7067V32.9057H71.4051V38.4702H81.311V45.4838H63.0704V13.43H81.1297C81.1297 13.43 81.311 13.5966 81.311 13.6117V20.5648V20.5699Z" fill="#333366"/>
<path d="M200.152 4.9924C201.275 4.76013 202.393 5.23982 203.062 6.13358C204.855 8.53206 203.999 10.7589 204.467 13.4351C205.062 16.8132 208.109 22.8977 207.257 26.0132C206.885 27.3715 205.611 28.3461 204.201 28.3966C202.524 28.4521 203.496 27.3513 203.561 26.6596C203.647 25.7759 203.017 25.4023 202.75 24.7054C201.798 22.2262 201.703 19.4641 200.565 16.7324C199.311 13.7229 197.724 12.0263 198.127 8.53206C198.268 7.30505 198.676 5.29537 200.147 4.9924H200.152Z" fill="#333366"/>
<path d="M224.058 4.52275C224.587 5.04284 225.664 6.96668 225.674 7.68875C225.685 8.41082 225.261 9.0521 225.191 9.73883C225.03 11.2789 225.619 12.2837 225.559 13.6118C225.488 15.1417 225.09 16.8787 224.949 18.4441C224.733 20.9082 225.085 22.1807 223.887 24.5135C223.65 24.9781 223.212 25.3467 222.99 25.9122C222.844 26.2909 222.658 27.8663 221.993 27.6896C221.817 27.6442 221.731 26.8564 221.625 26.604C221.157 25.4729 219.682 24.9831 219.284 24.2307C218.916 23.5238 218.941 21.1758 219.178 20.4033C219.289 20.0346 219.606 19.8327 219.762 19.4136C220.346 17.8078 220.079 16.2678 219.888 14.6822C219.712 13.2381 220.512 12.6473 220.598 11.4253C220.643 10.7841 220.538 9.5621 220.477 8.89052C220.437 8.43102 220.19 7.88063 220.225 7.43628C220.241 7.25955 221.495 5.30036 221.706 5.03779C222.346 4.25513 223.192 3.66434 224.058 4.5177V4.52275Z" fill="#333366"/>
<path d="M81.7342 50.3212C83.5522 50.4626 85.5011 51.1544 86.1659 53.0176C87.1026 55.6535 85.9947 57.6631 83.5371 58.6528C83.4162 58.7033 83.3256 58.5872 83.3659 58.8447L87.717 64.9495H84.9371L81.009 59.1477L80.591 59.0214V64.9495H78.2946V50.3162C79.4176 50.3818 80.6262 50.2304 81.7392 50.3162L81.7342 50.3212ZM80.586 57.0925C82.6155 57.0118 84.4587 56.7492 84.2169 54.2447C84.1716 53.8003 83.9551 53.3358 83.6025 53.0479C83.4414 52.9167 82.4997 52.4976 82.3385 52.4976H80.586V57.0925Z" fill="#333366"/>
<path d="M238.325 18.4188C239.513 18.2269 240.999 19.6104 241.12 20.7617C241.281 22.2513 240.626 23.443 239.735 24.5488C238.345 26.2555 237.348 27.9067 235.943 29.5831C235.328 30.3153 234.558 31.2696 234.11 32.1028C233.4 33.4257 233.42 34.5467 231.838 35.2688C229.794 36.2029 229.94 34.8648 230.61 33.4308C231.415 31.6887 232.75 30.0729 233.551 28.2702C234.664 25.7708 235.741 22.9077 236.456 20.2972C236.698 19.4135 237.368 18.5753 238.33 18.4188H238.325Z" fill="#333366"/>
<path d="M123.448 52.6541C131.792 51.8664 132.588 64.2375 124.858 64.9545C116.246 65.7523 115.501 53.4064 123.448 52.6541ZM123.936 54.3406C118.089 54.5072 118.422 63.8588 124.621 63.263C129.914 62.753 129.617 54.179 123.936 54.3406Z" fill="#333366"/>
<path d="M96.2683 52.6541C104.683 51.7603 105.58 64.1618 97.7891 64.9394C89.3034 65.7877 88.3969 53.4923 96.2683 52.6541ZM96.6308 54.3457C91.0459 54.7345 91.489 63.6568 97.3157 63.2579C102.951 62.8742 102.558 53.9316 96.6308 54.3457Z" fill="#333366"/>
<path d="M24.142 52.6541C32.5169 51.7098 33.5443 64.1567 25.6629 64.9444C17.2577 65.7826 16.2606 53.5428 24.142 52.6541ZM21.7952 55.5625C19.8059 57.552 20.3095 61.6471 22.9585 62.8388C27.1284 64.7071 30.6888 60.4302 28.6845 56.5017C27.4154 54.0174 23.7139 53.6387 21.7952 55.5625Z" fill="#333366"/>
<path d="M37.5177 52.6187C39.789 52.8611 41.0681 54.5022 40.7106 56.7845C40.5998 57.4864 39.9652 57.8752 39.7537 58.4205C42.5034 59.2436 42.6092 63.2529 40.076 64.49C39.8494 64.6011 38.7918 64.9545 38.6055 64.9545H34.4357V52.8005C34.4357 52.8005 34.6019 52.6187 34.617 52.6187C35.5184 52.6187 36.6566 52.5278 37.5177 52.6187ZM36.3695 57.9409C39.8343 58.4256 39.8645 53.8659 36.3695 54.4315V57.9409ZM36.3695 63.1418H38.2429C38.4393 63.1418 39.3307 62.7631 39.5019 62.5863C40.1516 61.935 40.1617 60.713 39.512 60.0566C39.3307 59.8748 38.5753 59.5112 38.3638 59.5112H36.3695V63.1418Z" fill="#333366"/>
<path d="M109.881 52.6187C112.983 52.9469 114.262 56.2442 111.996 58.4205C114.207 58.7791 114.861 61.8946 113.627 63.5053C113.149 64.1315 111.739 64.9545 110.968 64.9545H106.799V52.8005C106.799 52.8005 106.965 52.6187 106.98 52.6187C107.881 52.6187 109.014 52.5278 109.881 52.6187ZM108.732 57.9409C112.197 58.4256 112.227 53.8659 108.732 54.4315V57.9409ZM108.732 63.1418H110.606C110.651 63.1418 111.321 62.9146 111.422 62.8691C112.449 62.3793 112.64 60.8796 111.88 60.0566C111.719 59.8798 110.923 59.5163 110.732 59.5163H108.737V63.1468L108.732 63.1418Z" fill="#333366"/>
<path d="M67.4167 54.4315H62.4613V57.4561H67.1146C67.3865 57.4561 67.3865 59.39 67.1146 59.39H62.4613V63.1418H67.4167V64.9545H60.5325V52.6187H67.2354C67.5426 52.6187 67.3765 54.1386 67.4167 54.4315Z" fill="#333366"/>
<path d="M184.807 31.8403C185.588 31.6787 187.844 32.8249 188.408 33.3803C189.46 34.4256 189.4 35.0668 189.858 36.2838C190.05 36.7887 190.775 38.1319 190.77 38.5308C190.765 39.0812 189.677 40.2021 189.193 40.4698C187.889 41.1918 186.68 41.0959 185.688 39.9749C184.837 39.0105 183.306 36.415 182.818 35.2284C182.269 33.9055 183.538 32.1028 184.807 31.8403Z" fill="#333366"/>
<path d="M164.894 61.0967C164.874 63.1569 167.71 64.1314 168.676 62.2581C169.89 59.9 167.02 59.3345 165.625 58.6124C161.213 56.3149 164.829 51.0483 168.853 52.9621C169.301 53.1741 170.615 54.2497 170.233 54.7445C170.152 54.8455 169.19 55.406 169.069 55.406C168.822 55.3959 168.697 54.9919 168.47 54.8001C167.372 53.871 165.277 54.3153 165.514 55.9412C165.675 57.0622 167.946 57.5217 168.853 58.0468C172.846 60.3494 170.041 66.2774 165.539 64.7525C164.456 64.3839 163.076 62.7933 163.102 61.6219C163.107 61.2532 164.537 61.1068 164.894 61.1018V61.0967Z" fill="#333366"/>
<path d="M159.591 55.6433C156.947 53.0579 152.42 54.4314 152.103 58.2437C151.73 62.6973 156.333 64.7474 159.591 61.9298V64.1061C157.99 64.8837 156.544 65.1766 154.782 64.7474C147.842 63.0609 149.01 51.9117 157.119 52.6085C157.516 52.6439 159.591 53.1488 159.591 53.5225V55.6382V55.6433Z" fill="#333366"/>
<path d="M140.988 52.6187V54.4315H138.208V64.7727C138.208 64.7727 138.042 64.9545 138.027 64.9545H136.275V54.4315H133.555C133.248 54.4315 133.414 52.9116 133.374 52.6187H140.983H140.988Z" fill="#333366"/>
<path d="M53.2855 52.6187V63.1418H56.9064V64.9545H51.3517V52.6187H53.2855Z" fill="#333366"/>
<path d="M47.6099 52.6187H45.5552V64.9545H47.6099V52.6187Z" fill="#333366"/>
<path d="M146.79 52.6187H144.856V64.9545H146.79V52.6187Z" fill="#333366"/>
<path d="M190.241 40.7929C191.248 40.5606 192.572 41.9644 192.557 42.9894C192.512 46.009 188.926 42.8379 189.354 41.4847C189.435 41.2322 189.984 40.8484 190.236 40.7879L190.241 40.7929Z" fill="#333366"/>
</svg>
